<?xml version="1.0" encoding="UTF-8"?>
<svg width="375px" height="514px" viewBox="0 0 375 514" version="1.1" xmlns="http://www.w3.org/2000/svg" xmlns:xlink="http://www.w3.org/1999/xlink">
    <!-- Generator: Sketch 52.6 (67491) - http://www.bohemiancoding.com/sketch -->
    <title>lobby</title>
    <desc>Created with Sketch.</desc>
    <g id="Becca" stroke="none" stroke-width="1" fill="none" fill-rule="evenodd">
        <g id="iPhone-XS" transform="translate(0.000000, -184.000000)">
            <g id="lobby" transform="translate(-271.000000, 155.000000)">
                <g id="Scene/background" transform="translate(0.000000, 60.000000)">
                    <g id="Clock" transform="translate(297.000000, 0.000000)">
                        <circle id="Clock-Frame" fill="#F2F2F2" cx="53" cy="53" r="53"></circle>
                        <circle id="Time" fill-opacity="0.1" fill="#000000" cx="53" cy="11" r="3"></circle>
                        <circle id="Time" fill-opacity="0.1" fill="#000000" cx="11" cy="53" r="3"></circle>
                        <circle id="Time" fill-opacity="0.1" fill="#000000" cx="95" cy="53" r="3"></circle>
                        <circle id="Time" fill-opacity="0.1" fill="#000000" cx="53" cy="95" r="3"></circle>
                        <polygon id="Hand" fill="#AFB9C5" points="53 17 55 52 51 52"></polygon>
                        <polygon id="Hand" fill="#AFB9C5" transform="translate(62.213203, 62.213203) rotate(135.000000) translate(-62.213203, -62.213203) " points="62.2132034 50.2132034 64.2132034 74.2132034 60.2132034 74.2132034"></polygon>
                        <circle id="Time" fill="#C5CFD6" cx="53" cy="53" r="4"></circle>
                    </g>
                    <g id="Background-Shape-2" opacity="0.345889137" transform="translate(0.000000, 107.000000)" fill="#DDE3E9">
                        <path d="M237.144372,275.447681 C243.320429,209.991794 574.692198,83.6550381 636.210212,145.65356 C697.728225,207.652082 682.156816,338.058789 553.237782,367.854345 C424.318748,397.649901 230.968315,340.903567 237.144372,275.447681 Z" id="Background-Shape"></path>
                    </g>
                </g>
                <g id="man/Standing" transform="translate(577.500000, 213.000000) scale(-1, 1) translate(-577.500000, -213.000000) translate(426.000000, 0.000000)">
                    <g id="Head/Front/Short-Beard" transform="translate(82.000000, 0.000000)">
                        <g id="Head" stroke-width="1" transform="translate(54.000000, 31.000000)" fill="#D4A181">
                            <path d="M8.26227388,34.4901268 C3.65436435,29.0813759 0.535634794,22.4528771 1.05677633,15.0254539 C2.55833022,-6.37502057 32.3485306,-1.66718886 38.1433414,9.13393292 C43.9381521,19.9350547 43.249578,47.3329958 35.7603014,49.2634576 C32.7735882,50.033323 26.4110012,48.1474609 19.935372,44.244306 L24,73 L0,73 L8.26227388,34.4901268 Z"></path>
                        </g>
                        <path d="M75.1353054,48.388929 C76.0539893,61.1861055 78.4841513,67.5846937 82.4257914,67.5846937 C88.3385979,67.5846937 93.355194,63.8310443 95.9495915,63.8310443 C97.8408192,63.8310443 97.4185661,66.1977405 96.1649615,67.9524776 C95.1306973,69.4001921 90.0939174,70.7956158 90.0939174,73.0400595 C90.0939174,75.2845031 94.0733913,73.5481008 94.0733913,74.8792364 C94.0733913,77.0810973 94.7727779,81.2209894 90.9512241,81.2209894 C87.0836843,81.2209894 75.9947625,79.8115837 74.0944216,74.0714721 C72.8679972,70.366972 72.0750257,62.6905548 71.7155071,51.0422204 C71.4808897,51.0143412 71.2421196,51 71,51 C67.6862915,51 65,53.6862915 65,57 C65,58.6822183 65.6922919,60.2027431 66.807515,61.292214 C65.4191964,63.2518162 63.8632894,65.2988831 62.0803863,67.4111902 C55.3824054,63.3926741 50.4121226,51.6289713 56.9604861,40.3282783 C58.7704744,34.7922446 62.8680346,31.8352408 67.7073518,30.4622091 C71.6274481,28.8224203 75.6968791,28.6375327 79.1320584,29.6205713 C85.8659611,30.1981637 91.8790132,32.2515132 93.5831606,33.4709469 C93.5831606,39.8461712 92.3478701,41.7376815 81.7968056,41.5709519 C79.204238,42.9401362 77.2112029,45.2978697 75.1353054,48.388929 Z" id="Hair" fill="#191847"></path>
                    </g>
                    <g id="Bottom/Standing/Sweatpants" transform="translate(0.000000, 187.000000)">
                        <polygon id="Leg" fill="#997659" points="128 9.9475983e-14 164.630838 126.226909 181.860154 221 199.153197 221 181.890974 9.9475983e-14"></polygon>
                        <path d="M111.537727,0 C114.093705,65.5742244 113.085665,101.340188 112.513606,107.297892 C111.941548,113.255595 108.69393,153.156298 86.5636874,223 L104.549973,223 C133.85784,155.996902 144.088936,116.096199 147.450326,107.297892 C150.811717,98.4995844 160.739403,62.7336205 175.233385,0 L111.537727,0 Z" id="Leg" fill="#B28B67"></path>
                        <path d="M127.213639,1.13686838e-13 C136.741891,43.4350253 153.221683,112.768359 176.653017,208 L201.946059,208 C203.814239,110.253828 195.86709,45.9204947 182.104613,1.13686838e-13 L127.213639,1.13686838e-13 Z" id="Pant" fill="#191847"></path>
                        <path d="M111.409919,0 C113.913164,65.5742244 107.425844,130.177256 87.3305078,209.020958 L114.316793,209.020958 C143.678541,143.017859 164.723052,78.7336205 179.105577,0 L111.409919,0 Z" id="Pant" fill="#2F3676"></path>
                        <g id="Accessories/Shoe/Flat-Simple" transform="translate(84.000000, 199.000000)" fill="#191847">
                            <path d="M0,37 L0.99242267,21 C6.8029179,22.6994251 14.0806841,22.0327584 22.8257214,19 C32.2287535,25.660617 44.0659431,30.2086712 58.3372903,32.6441626 L58.3372863,32.6441862 C59.4261013,32.829999 60.1581292,33.8632891 59.9723163,34.9521041 C59.9602834,35.0226139 59.9444765,35.0924273 59.9249637,35.1612435 L58.5529375,40 L22.8257214,40 L1.98484534,40 L0,37 Z" id="Shoe"></path>
                        </g>
                        <g id="Accessories/Shoe/Flat-Simple" transform="translate(178.000000, 199.000000)" fill="#191847">
                            <path d="M0,37 L0.99242267,21 C6.8029179,22.6994251 14.0806841,22.0327584 22.8257214,19 C32.2287535,25.660617 44.0659431,30.2086712 58.3372903,32.6441626 L58.3372863,32.6441862 C59.4261013,32.829999 60.1581292,33.8632891 59.9723163,34.9521041 C59.9602834,35.0226139 59.9444765,35.0924273 59.9249637,35.1612435 L58.5529375,40 L22.8257214,40 L1.98484534,40 L0,37 Z" id="Shoe"></path>
                        </g>
                    </g>
                    <rect id="Rectangle" fill="#5F5F5F" transform="translate(286.524550, 127.216865) rotate(18.000000) translate(-286.524550, -127.216865) " x="276.02455" y="106.216865" width="21" height="42" rx="2"></rect>
                    <g id="Body/Jacket-2" transform="translate(22.000000, 80.000000)">
                        <path d="M198,77.6170876 L234.234567,61.7041739 C240.582018,55.3790221 246.711387,50.5716141 252.622674,47.2819501 C254.390261,46.7192094 257.410101,46.5491987 254.188168,51.2551684 C250.966235,55.961138 247.78889,61.0560141 249.076289,62.7052963 C250.363689,64.3545786 254.093006,62.5342201 255.566345,65.2162765 C256.548571,67.0043141 250.262286,69.1431805 236.707491,71.6328758 L209.56994,92.4392868 L198,77.6170876 Z M51.5082829,82 L72,86.0658446 C51.3920824,124.471059 40.3404263,144.825845 38.8450319,147.130202 C35.4803944,152.315007 38.6196693,161.817238 39.7793043,166.821179 C32.5044044,168.51462 35.3734014,157.565005 26.1671562,159.851185 C17.7641225,161.937904 10.6393632,167.293169 2.8038784,160.07074 C1.84055159,159.182785 1.13535082,156.407288 4.41981989,154.983749 C12.6026301,151.437195 24.6920431,144.796343 26.6523424,142.218096 C29.3255608,138.702197 37.6108743,118.629498 51.5082829,82 Z" id="Skin" fill="#D4A181"></path>
                        <path d="M123.280247,9.87718027 L131.765198,7.64600959 C152.120135,24.2050747 163.602366,67.2616718 176.61267,71.9556463 C188.913385,76.3936093 205.208593,69.6320097 224.503164,60.7390322 L231.796052,73.8353428 C215.409826,95.0000245 178.298612,114.916545 161.84294,106.839809 C135.533742,93.9267871 125.046804,40.501408 123.280247,9.87718027 Z" id="Coat-Back" fill="#DB2721" transform="translate(177.538150, 58.161768) rotate(5.000000) translate(-177.538150, -58.161768) "></path>
                        <path d="M90,114 C124.671756,114 150.175573,114 166.511451,114 C170.007634,114 169.348845,108.951637 168.84345,106.404206 C163.010588,77.0037663 140.241304,45.3115155 140.241304,3.4607303 L118.1718,0 C99.917485,29.3584068 93.6048263,65.5045499 90,114 Z" id="Shirt" fill="#DDE3E9"></path>
                        <path d="M82.3687546,84.2331696 C66.7713811,112.367832 53.6609446,132.623442 43.0374452,145 L27,141.85882 C37.3305927,77.7906722 67.2466105,30.5043988 116.748053,3.81764932e-14 L117,2.9470116e-14 L125.486398,0 C145.298923,67.5369477 150.760885,112.536948 141.872285,135 L73,135 C74.0896281,118.56345 77.5833963,101.181199 82.3687561,84.2331662 Z" id="Coat-Front" fill="#FF4133"></path>
                    </g>
                </g>
                <g id="Scene/foreground" transform="translate(557.000000, 248.000000)">
                    <g id="Plant">
                        <g id="Succulents" transform="translate(3.000000, 0.000000)">
                            <path d="M3.38092413,0.208187006 C12.213925,21.197225 27.2292006,35.7805339 35.1818951,57.6048833 C39.8977667,70.5473636 41.863552,84.6195065 41.9827844,99.0319481 C42.0475621,106.860255 41.9112966,114.693588 41.8746494,122.521895 C41.8390346,130.156002 41.6315393,137.74129 40.9835037,145.326577 C40.3323712,152.952069 39.603299,160.486743 39.2817329,168.159259 C39.0313966,174.137461 38.9170678,181.09097 36.890634,186.544007 C35.2791907,190.880662 31.1834821,191.51603 30.0967128,186.256476 C29.4928087,183.332706 29.5689419,180.068279 29.6355262,177.063384 C29.7209502,173.208101 29.9452206,169.358561 30.0595494,165.503996 C30.5191876,150.036197 29.9232839,134.565527 30.2347849,119.091626 C30.5390596,103.9731 32.4823921,88.871087 30.3320805,73.8534305 C28.5564992,61.4519104 24.045542,50.802498 18.8615156,40.5931767 C13.873887,30.7708195 8.44546012,21.187174 5.07495258,10.0143908 C4.10715753,6.80560332 3.35898744,3.48051124 3,0.0301404047 C3.15691184,-0.0427294746 3.28388655,0.0164997376 3.38092413,0.208187006 Z" id="Thi-Succs!" fill="#C1DEE2"></path>
                            <path d="M0.973588404,41.6169557 C2.7226644,42.8799919 3.70001184,44.7275773 4.88222633,46.55055 C6.35238241,48.8169596 8.08078375,50.8630865 9.55056393,53.131137 C12.6152999,57.8596264 15.3078921,62.8785444 18.1016022,67.7986018 C23.4055915,77.1374401 27.4326388,87.0907728 29.4271794,97.8948808 C31.4946451,109.09156 32.052109,120.648403 32.9193169,132.012037 C33.8391512,144.05621 34.7653759,156.188167 34.8871684,168.278693 C34.9416743,173.695515 35.2345026,179.445837 34.5841907,184.824509 C34.1793433,188.173053 32.6682138,191.026883 29.2614062,190.999809 C22.0249003,190.94238 18.6274903,182.927289 17.2080811,176.353675 C15.118813,166.674363 14.7019367,156.392862 15.0327312,146.494087 C15.432316,134.55821 17.5039166,122.801595 18.4004449,110.911661 C19.3499755,98.3247808 18.8135622,85.9602344 14.4861685,74.1088605 C12.2999174,68.1197961 9.76257314,62.2743052 7.48422591,56.3250312 C6.51402064,53.7919851 5.71936199,51.1900238 4.40896463,48.831317 C2.95121334,46.2076145 1.14161698,43.8259359 -3.0475622e-14,41 C0.324404167,41.2059254 0.649184237,41.4114405 0.973588404,41.6169557 Z" id="Thi-Succs!" fill="#89C5CC"></path>
                            <path d="M84.3341427,16.5176702 C84.5560133,16.345237 84.7781571,16.1728402 85,16 C84.3609397,18.6926575 83.2065589,20.8798938 82.3241537,23.3413066 C81.5309592,25.5541267 81.1289139,28.058225 80.5946654,30.4769505 C79.3401416,36.1577567 77.8904265,41.7105156 76.7055048,47.4397171 C74.3598951,58.7767524 74.8035283,70.9901843 76.3418843,83.5681524 C77.7947507,95.4496261 80.092478,107.312713 81.1873452,119.191609 C82.0949201,129.04307 82.4850091,139.201741 81.6192928,148.601 C81.0309846,154.984369 79.1025548,162.605994 73.8481376,161.961759 C71.3744617,161.658503 70.0840672,158.681129 69.5641892,155.320205 C68.7291114,149.921644 68.5543005,144.245802 68.2287956,138.877693 C67.5023548,126.895908 67.3576487,114.950973 67.2142162,103.092499 C67.078414,91.904007 66.7045185,80.493842 67.4521172,69.5872699 C68.1731866,59.0630547 70.4284885,49.5797393 73.6530782,40.8297246 C75.3514544,36.2198206 76.9696914,31.5020505 78.8779164,27.1084404 C79.7930343,25.0009936 80.9110333,23.1387509 81.826535,21.0329683 C82.5626976,19.3391662 83.148338,17.6010976 84.3341427,16.5176702 Z" id="Thi-Succs!" fill="#C1DEE2"></path>
                            <path d="M3.20880772,76.3018223 C4.16572159,74.6953252 6.27206517,79.9934093 6.59263271,80.6597751 C6.45704992,80.3283084 6.32092787,79.9973172 6.18360206,79.666614 C8.08298767,82.8249267 9.82062484,86.1127294 10.9009829,89.7341519 C11.9700503,93.3191128 12.888301,96.9765376 13.89141,100.586979 C15.7735895,107.360999 18.2016657,113.942756 19.9069626,120.7778 C21.5685818,127.438224 21.9875459,133.985891 21.5852981,140.875198 C21.1672391,148.035491 20.9114736,155.305643 21.3991881,162.462075 C21.632116,165.880018 22.7427231,169.063767 23.5039187,172.354313 C24.2660416,175.648102 24.8662939,178.985809 25.7672782,182.238759 C25.974095,181.814996 26.0004407,183.231705 25.9999945,183.339248 C25.99434,184.151918 25.8808641,184.833382 25.6194022,185.603962 C24.9475372,187.585538 23.69062,189.268993 21.7779741,189.815552 C18.3215161,190.803119 15.1122443,187.659032 13.9975999,184.339008 C12.398575,179.575285 11.5174472,174.310953 10.7554023,169.304056 C10.0567643,164.712777 9.89144111,160.094092 10.0990013,155.439587 C10.5078659,146.260651 12.1689639,137.201885 12.618303,128.025744 C13.1073521,118.035719 11.1280407,108.649277 9.47082403,98.9248264 C8.67258323,94.2391921 7.90974363,89.5977685 6.35630439,85.1336672 C5.7273694,83.3259909 4.90736765,81.7307159 4.04759418,80.0614309 C3.55838288,79.1117083 2.56905129,77.4176151 3.20880772,76.3018223 Z" id="Thi-Succs!" fill="#C1DEE2"></path>
                            <path d="M31.2520927,60.6970481 C30.8556379,72.1418193 30.1720216,83.4997745 28.6461885,94.8239462 C27.0889362,106.380282 25.300327,117.896941 23.8019539,129.46349 C22.3433779,140.722452 20.8145443,152.168401 21.0183676,163.584496 C21.1684795,171.99346 19.7741408,186.218697 29.1133695,190.368969 C38.572085,194.57188 40.6010206,176.62338 41.2221153,170.699078 C42.4123367,159.332874 42.027006,147.846855 41.4493767,136.418583 C40.8563654,124.689401 39.8664321,113.01993 38.6395466,101.333567 C37.2768349,88.3528226 36.2076085,75.3135458 35.3494633,62.2958749 C34.92489,55.8569635 34.820295,49.4286586 34.9374389,42.9881759 C35.048171,36.9106701 34.8172608,30.7703111 32.6564941,25 C32.5432773,25.0821019 32.4308129,25.1642038 32.3175887,25.2459129" id="Thi-Succs!" fill="#69A1AC"></path>
                            <path d="M80.0827466,96.9552251 C78.3816844,99.4332953 76.6669438,101.887253 75.0605101,104.512188 C72.1861393,109.208575 69.5869207,114.431593 68.8049844,121.146824 C67.1686355,135.200365 68.4814231,150.378956 68.7982735,164.862679 C68.863082,167.822444 68.4887518,170.692884 69.6553203,173.509621 C70.713019,176.063863 72.6905254,178.01037 74.5755064,177.999958 C78.6108036,177.976942 77.9951288,168.09535 78.0017787,163.745849 C78.0139471,156.122577 77.1591232,148.422037 77.232697,140.805889 C77.3061571,133.260434 77.7650203,125.694154 78.8589994,118.527917 C79.96657,111.274547 81.5885624,104.309427 83.7291347,97.809562 C84.0261843,96.9075488 86.1579416,89.9374968 84.1438969,91.1387197" id="Thi-Succs!" fill="#89C5CC"></path>
                            <path d="M62.262195,22 C59.6091513,22 59.625416,35.2259973 59.5456053,36.9248132 C59.257379,43.055394 59.3250857,49.1876151 59.1427693,55.3194261 C58.7437159,68.7008304 58.2535042,82.1995075 56.243485,95.4263249 C55.1613125,102.546754 53.9066581,109.63561 52.557063,116.701913 C51.2036854,123.788718 49.3869518,130.866913 48.4965519,138.043518 C47.6417075,144.942523 48.1247324,151.977253 48.2419898,158.910292 C48.3592472,165.885155 48.5699324,172.87396 49.4837837,179.787726 C49.7092206,181.494333 49.9736172,183.194789 50.256548,184.891145 C50.4921976,186.304569 50.3548929,188.057511 50.7535682,189.400818 C51.3928102,191.552324 54.1328514,192.256371 55.9779537,191.920134 C60.9704721,191.008604 64.1594958,184.739838 65.8650239,180.159637 C68.0429859,174.311167 69.1985389,167.967363 70.3389619,161.803978 C71.6310631,154.821324 72.3883191,147.732059 72.7434956,140.623111 C73.4655743,126.17518 72.5388625,111.711667 71.5039711,97.310071 C70.928275,89.3006645 70.263312,81.3265219 69.2458201,73.3667309 C68.2324891,65.4409736 66.9324447,57.5504802 66.0859217,49.6013503 C65.4708876,43.8246382 64.8649315,38.0401352 64.4666346,32.2412807 C64.3713156,30.8586094 64.2911267,22 62.262195,22" id="Thi-Succs!" fill="#69A1AC"></path>
                            <path d="M58.9407927,118.138703 C58.5083549,104.252695 52.9265288,43.2589078 51.6565806,26.4671323 C51.3390091,22.2641696 48.2815387,4.76463908 47.8849122,-1.2490009e-14 C46.809561,1.346742 46.901454,22.3094454 46.9132785,27.1261944 C46.9257786,31.8908335 46.3348929,36.5764535 46.0308351,41.3154647 C45.7210339,46.1510074 38.5722965,108.600882 37.6445823,113.247206 C35.7989512,122.490734 34.5638007,131.976445 33.6110862,141.427558 C32.6830341,150.639478 31.2401108,160.357975 32.4820181,169.618161 C32.7674946,171.749969 33.2191894,173.847606 33.9546715,175.805999 C34.749276,177.922003 35.2938774,179.878687 35.9317231,182.09293 C36.9580872,185.659469 38.8148671,188.78948 41.667943,190.261798 C47.51734,193.280756 50.6582574,186.44667 52.2505069,180.496744 C54.7934439,170.994802 56.4255588,161.337812 57.190771,151.358766 C58.0374031,140.318301 59.2870808,129.255197 58.9407927,118.138703" id="Thi-Succs!" fill="#89C5CC"></path>
                        </g>
                        <g id="Planter" transform="translate(0.000000, 159.000000)">
                            <rect id="Vase" fill="#F3EEEE" x="0" y="0" width="91" height="91" rx="2"></rect>
                            <rect id="Leg" fill="#C5CFD6" x="0" y="10" width="10" height="113" rx="2"></rect>
                            <path d="M61,91 L71,91 L71,121 C71,122.104569 70.1045695,123 69,123 L63,123 C61.8954305,123 61,122.104569 61,121 L61,91 Z" id="Leg" fill="#BCC5CD"></path>
                            <rect id="Leg" fill="#C5CFD6" x="40" y="10" width="10" height="113" rx="2"></rect>
                        </g>
                    </g>
                </g>
                <g id="woman/Standing" transform="translate(236.000000, 77.000000)">
                    <g id="Head/Front/Chongo" transform="translate(82.000000, 0.000000)">
                        <g id="Head" stroke-width="1" transform="translate(54.000000, 31.000000)" fill="#B28B67">
                            <path d="M8.26227388,34.4901268 C3.65436435,29.0813759 0.535634794,22.4528771 1.05677633,15.0254539 C2.55833022,-6.37502057 32.3485306,-1.66718886 38.1433414,9.13393292 C43.9381521,19.9350547 43.249578,47.3329958 35.7603014,49.2634576 C32.7735882,50.033323 26.4110012,48.1474609 19.935372,44.244306 L24,73 L0,73 L8.26227388,34.4901268 Z"></path>
                        </g>
                        <path d="M82.6634951,28.3699763 C79.3840534,27.3699763 74.6234565,27.0308443 72.6208149,27.2602642 C73.7600087,24.5308439 74.2120576,21.4899413 73.8435286,18.5290858 C73.4853344,15.6520661 72.1997702,13.2023672 71.0108165,10.6353788 C70.4627695,9.45216518 69.8416903,8.27540043 68.9156982,7.37037661 C67.972405,6.44834378 66.7783223,5.83972796 65.5262119,5.54936581 C64.2448581,5.2521517 62.9050174,5.27689939 61.6216732,5.54662502 C61.0539519,5.66592985 60.5445644,5.92549845 59.9877902,6.0697928 C59.4176191,6.21763405 59.141031,5.86076752 58.7271824,5.50212755 C57.7298424,4.63797369 56.2677456,4.21137833 55.0059895,4.0587004 C53.5903607,3.88748186 52.1214506,4.10102137 50.7713517,4.56639079 C49.457233,5.01942668 48.1947879,5.75508602 47.2446815,6.82681415 C46.8216464,7.30387223 46.4376536,7.8468704 46.188089,8.44637714 C46.0857368,8.69240304 46.0688185,8.83814839 45.8233112,8.9282719 C45.5962532,9.01170466 45.3306889,9.014123 45.0963584,9.0935252 C42.8305256,9.86094542 40.8932607,11.6116631 39.8384289,13.8595111 C39.2230147,15.1708968 38.9314987,17.4797836 39.0113441,20.0676663 C39.0911894,22.655549 41.4279109,29.4080735 43.613439,31.8710732 C45.5642539,34.0695065 48.4317213,35.5202692 51.1990566,36.1553256 C49.36223,38.2548487 48.1395162,40.8784262 47.2353419,43.5466625 C46.2532361,46.4450442 45.6454006,49.4566043 45.4209456,52.525076 C45.2077438,55.4404668 45.187993,58.5235291 45.8714634,61.3766879 C46.5108389,64.0448435 47.8781623,66.233684 50.1607604,67.6222954 C51.2063292,68.2583997 52.331284,68.7362639 53.4627459,69.1730163 C54.5778253,69.6034004 55.6962731,70.021854 56.8643276,70.2633656 C59.0749653,70.7202709 61.6221325,70.641836 63.3249903,68.8822511 C63.9387204,68.2479202 64.6136933,67.450835 65.0614552,66.675918 C65.2224473,66.3972445 65.3195173,66.2149822 65.1239229,65.9425963 C64.8895924,65.6163621 64.5105756,65.3663863 64.2095669,65.1111707 C62.493006,63.6560549 61.4304424,61.7134822 61.1625814,59.4049338 C60.8908162,57.0626093 61.5200101,54.03928 63.7973259,53.0170472 C66.6084499,51.7551569 69.7042766,53.2035819 72.2028323,54.5537417 C73.264707,50.805958 75.4450295,47.4314855 78.8633764,45.7123675 C82.6451998,43.8105035 86.9847925,43.5879355 90.871188,41.9561196 C91.8839153,41.5308947 92.9153983,41.0481938 93.6610301,40.1817828 C93.9726032,39.8196765 94.3381465,39.3499541 94.4625461,38.871042 C94.625988,38.2419509 94.220254,37.7145107 93.9068437,37.2240711 C92.2450186,34.623629 85.9429367,29.3699763 82.6634951,28.3699763 Z" id="hair" fill="#191847"></path>
                    </g>
                    <g id="Bottom/Standing/Skinny-Jeans" transform="translate(0.000000, 187.000000)">
                        <polygon id="Leg" fill="#69A1AC" points="128 9.9475983e-14 164.254962 127.226909 190.706957 221 210 221 181.890974 9.9475983e-14"></polygon>
                        <path d="M118.304342,0 C117.465768,65.5742244 114.606247,101.340188 113.725779,107.297892 C112.845311,113.255595 99.5321718,151.156298 73.7863613,221 L93.7726468,221 C126.549033,153.996902 144.845651,116.096199 148.662499,107.297892 C152.479348,98.4995844 164.258515,62.7336205 182,0 L118.304342,0 Z" id="Leg" fill="#89C5CC"></path>
                        <g id="Accessories/Shoe/Flat-Pointy" transform="translate(72.000000, 199.000000)" fill="#191847">
                            <path d="M0,40 L1,19 L22,19 C31.9576033,26 44.9576033,31.6666667 61,36 L61,40 L23,40 L10,38 L10,40 L0,40 Z" id="Shoe"></path>
                        </g>
                        <g id="Accessories/Shoe/Flat-Pointy" transform="translate(188.000000, 199.000000)" fill="#191847">
                            <path d="M0,40 L1,19 L22,19 C31.9576033,26 44.9576033,31.6666667 61,36 L61,40 L23,40 L10,38 L10,40 L0,40 Z" id="Shoe"></path>
                        </g>
                    </g>
                    <rect id="Rectangle" fill="#5F5F5F" transform="translate(72.631913, 257.854763) rotate(-48.000000) translate(-72.631913, -257.854763) " x="62.1319127" y="236.854763" width="21" height="42" rx="2"></rect>
                    <g id="Body/Jacket" transform="translate(22.000000, 82.000000)">
                        <path d="M194.04441,89.1225115 L222.372314,116.757535 C230.61469,120.273345 237.368143,124.155511 242.632673,128.40403 C243.816587,129.832102 245.10547,132.568362 239.535214,131.343925 C233.964957,130.119488 228.050816,129.082079 227.003896,130.893567 C225.956977,132.705055 229.041811,135.480899 227.106974,137.851671 C225.817082,139.432186 221.479076,134.404878 214.092956,122.769747 L184.635682,105.402467 L194.04441,89.1225115 Z M68.3079281,93.0198914 L89.2053198,93.1020711 C76.3021447,134.755739 69.3363474,156.856914 68.3079281,159.405597 C65.9939846,165.140133 70.8906002,173.873732 72.9845874,178.567103 C66.1645409,181.61887 66.8912241,170.316929 58.2879189,174.319492 C50.4352209,177.972846 44.4616931,184.59248 35.3890352,178.994371 C34.2736052,178.306117 33.0512757,175.714714 36.0045784,173.68967 C43.3623323,168.644547 53.9653015,159.814672 55.3979297,156.908251 C57.3515741,152.944826 61.6549068,131.648706 68.3079281,93.0198914 Z" id="Skin" fill="#B28B67"></path>
                        <path d="M122.01899,9.23199981 L130.503942,7.00082913 C148.576175,42.7520052 177.414525,74.1501034 217.01899,101.195124 L192.061793,137.56505 C151.33882,97.6857553 124.670571,55.1985909 122.01899,9.23199981 Z" id="Coat-Back" fill="#191847" transform="translate(169.518990, 72.282940) rotate(5.000000) translate(-169.518990, -72.282940) "></path>
                        <path d="M90,114 L167,114 C149.16087,70.6251468 140.241304,33.7787236 140.241304,3.4607303 L117.014208,0 C98.7598929,29.3584068 93.6048263,65.5045499 90,114 Z" id="Shirt" fill="#DDE3E9"></path>
                        <path d="M116.522435,0.0164198669 C116.525484,0.0109456263 116.528534,0.00547233727 116.531583,-1.73374996e-14 L118.047752,-4.26343884e-14 C119.86198,0.0624731357 122.625282,0.175030894 126.337658,0.337673275 L131.950158,16.3768801 C132.543836,35.9324229 136.010826,75.3421183 142.351127,134.605966 L91.8760816,134.605966 C92.0084015,138.699076 92.2265759,142.83042 92.5306047,147 L55,147 C60.6139164,83.6639633 81.1152373,34.6639633 116.503963,1.42108547e-14 L116.522435,0.0164198605 Z" id="Coat-Front" fill="#2F3676"></path>
                        <path d="M95.2102301,82.2331012 C96.6467433,107.747892 100.243333,125.336858 106,135 L91.889081,135 C91.27131,116.642855 92.3783599,99.0539088 95.2102289,82.2331082 Z" id="Shade" fill-opacity="0.1" fill="#000000"></path>
                        <polygon id="Light" fill-opacity="0.2" fill="#FFFFFF" points="103.110899 104 128 92.4292718 128 104"></polygon>
                    </g>
                </g>
            </g>
        </g>
    </g>
</svg>