<?xml version="1.0" encoding="UTF-8"?>
<svg width="652px" height="231px" viewBox="0 0 652 231" version="1.1" xmlns="http://www.w3.org/2000/svg" xmlns:xlink="http://www.w3.org/1999/xlink">
    <title>Becca</title>
    <desc>Created with Sketch.</desc>
    <g id="Page-1" stroke="none" stroke-width="1" fill="none" fill-rule="evenodd">
        <path d="M105.914062,168.03125 L106.1875,159.007812 C108.192718,157.002594 110.790349,156 113.980469,156 C117.170589,156 119.494784,157.093739 120.953125,159.28125 C121.31771,159.828128 121.5,160.374997 121.5,160.921875 C121.5,162.562508 119.494812,164.385407 115.484375,166.390625 C115.484375,179.880276 120.588491,191.911405 130.796875,202.484375 C141.005259,213.057345 152.352802,218.34375 164.839844,218.34375 C177.326885,218.34375 189.403588,214.059939 201.070312,205.492188 C212.737038,196.924436 222.261682,186.306053 229.644531,173.636719 C237.027381,160.967385 240.71875,149.528697 240.71875,139.320312 C240.71875,129.111928 237.164098,120.316443 230.054688,112.933594 C222.945277,105.550744 214.651089,100.127621 205.171875,96.6640625 C195.692661,93.2005035 187.261756,91.46875 179.878906,91.46875 C172.496057,91.46875 165.432325,91.8333297 158.6875,92.5625 C150.302041,93.4739629 144.605484,93.9296875 141.597656,93.9296875 C138.589829,93.9296875 132.984416,93.4739629 124.78125,92.5625 L70.09375,192.367188 C65.7187281,199.841183 60.2500328,206.039038 53.6875,210.960938 C47.1249672,215.882837 39.4687938,218.34375 30.71875,218.34375 C21.9687062,218.34375 14.7682574,214.378946 9.1171875,206.449219 C3.46611758,198.519492 0.640625,189.724007 0.640625,180.0625 C6.29169492,180.0625 10.6666512,185.166616 13.765625,195.375 C15.041673,199.020852 17.4570135,202.438786 21.0117188,205.628906 C24.566424,208.819026 29.1692426,210.414062 34.8203125,210.414062 C43.2057711,208.591137 51.6822488,201.937557 60.25,190.453125 C68.8177512,178.968693 76.2004898,166.390693 82.3984375,152.71875 C100.627695,112.067505 116.304622,83.9037242 129.429688,68.2265625 C141.096413,52.7316934 152.580673,39.8802594 163.882812,29.671875 C185.028752,10.5311543 204.169185,0.9609375 221.304688,0.9609375 C227.502635,0.9609375 232.287744,3.10284316 235.660156,7.38671875 C239.032569,11.6705943 240.71875,17.6405867 240.71875,25.296875 C240.71875,32.9531633 237.75654,40.6549092 231.832031,48.4023438 C225.907522,56.1497783 217.932342,63.7603793 207.90625,71.234375 C197.880158,78.7083707 192.411463,82.9010371 191.5,83.8125 C199.885459,86.1823035 207.587204,89.0077961 214.605469,92.2890625 C221.623733,95.5703289 226.226552,97.9856693 228.414062,99.5351562 C230.601573,101.084643 233.199204,103.226549 236.207031,105.960938 C239.214859,108.695326 241.447909,111.520819 242.90625,114.4375 C246.734394,122.093788 248.648438,130.752556 248.648438,140.414062 C248.648438,150.075569 244.364626,161.833264 235.796875,175.6875 C227.229124,189.541736 216.382878,201.390576 203.257812,211.234375 C190.132747,221.078174 177.645893,226 165.796875,226 C150.666591,226 136.903708,220.07558 124.507812,208.226562 C112.111917,196.377545 105.914062,182.979241 105.914062,168.03125 Z M219.664062,6.15625 C209.637971,6.15625 196.695392,12.2629598 180.835938,24.4765625 L171.8125,33.5 C167.437478,37.8750219 162.880232,42.4778404 158.140625,47.3085938 C153.401018,52.1393471 150.757815,54.8281223 150.210938,55.375 C144.01299,62.6667031 137.268266,72.6926445 129.976562,85.453125 C140.914117,85.453125 157.867073,84.0859512 180.835938,81.3515625 C214.195479,58.5649902 232.424464,38.7865422 235.523438,22.015625 C235.523438,16.9114328 234.110691,12.9922012 231.285156,10.2578125 C228.459621,7.52342383 224.585962,6.15625 219.664062,6.15625 Z M256.304688,197.289062 C256.122395,195.648429 256.03125,194.098966 256.03125,192.640625 C256.03125,180.9739 259.904909,168.94277 267.652344,156.546875 C275.399778,144.15098 285.380147,137.953125 297.59375,137.953125 C299.963554,137.953125 301.877597,138.636712 303.335938,140.003906 C304.794278,141.371101 305.523438,143.649724 305.523438,146.839844 C305.523438,150.029964 304.657561,153.766906 302.925781,158.050781 C301.194002,162.334657 298.550799,166.664041 294.996094,171.039062 C291.441388,175.414084 288.388034,178.968736 285.835938,181.703125 C283.283841,184.437514 279.683617,187.992166 275.035156,192.367188 C270.386696,196.742209 267.606775,199.385412 266.695312,200.296875 C266.51302,201.755216 266.421875,202.57552 266.421875,202.757812 C266.421875,207.679712 268.791643,211.507799 273.53125,214.242188 C278.270857,216.976576 283.192683,218.34375 288.296875,218.34375 C300.510478,218.34375 310.217412,216.156272 317.417969,211.78125 C324.618526,207.406228 332.958286,200.023489 342.4375,189.632812 C343.895841,187.809887 344.761717,186.351568 345.035156,185.257812 C345.308595,184.164057 346.265617,182.979173 347.90625,181.703125 C349.729176,182.432295 350.640625,184.164049 350.640625,186.898438 C348.817699,192.549507 345.171902,198.610645 339.703125,205.082031 C334.234348,211.553418 327.763058,217.067686 320.289062,221.625 C309.898386,227.640655 301.102901,230.648438 293.902344,230.648438 C286.701787,230.648438 279.7292,228.187525 272.984375,223.265625 C266.23955,218.343725 260.679709,209.684958 256.304688,197.289062 Z M298.140625,148.070312 C290.302044,148.070312 283.01045,152.262979 276.265625,160.648438 C269.5208,169.033896 266.148438,177.054649 266.148438,184.710938 C266.148438,187.263034 266.330727,189.085932 266.695312,190.179688 C273.440138,186.533836 280.367152,180.290409 287.476562,171.449219 C294.585973,162.608029 298.140625,154.815138 298.140625,148.070312 Z M371.695312,216.429688 C377.89326,216.429688 384.273405,215.518238 390.835938,213.695312 C397.39847,211.872387 405.601513,209.320329 415.445312,206.039062 C425.289112,202.757796 431.851546,201.117188 435.132812,201.117188 C438.414079,201.117188 440.054688,202.028637 440.054688,203.851562 C440.054688,204.763025 439.872398,205.76562 439.507812,206.859375 C411.799341,219.437563 390.197994,225.726562 374.703125,225.726562 C365.953081,225.726562 359.162785,223.721374 354.332031,219.710938 C349.501278,215.700501 347.085938,211.006537 347.085938,205.628906 C347.085938,200.251275 348.088532,194.828152 350.09375,189.359375 C354.651064,177.145772 362.033803,167.757845 372.242188,161.195312 C378.257843,157.184876 383.817683,155.179688 388.921875,155.179688 C397.854211,155.179688 405.328095,160.374948 411.34375,170.765625 L411.34375,171.585938 L406.421875,176.507812 C402.593731,168.304646 397.307325,164.203125 390.5625,164.203125 C388.192696,164.203125 385.731784,164.749995 383.179688,165.84375 C374.247351,168.942724 366.955757,175.778593 361.304688,186.351562 C357.476543,193.460973 355.5625,200.570277 355.5625,207.679688 C357.385426,213.51305 362.762976,216.429688 371.695312,216.429688 Z M463.023438,216.429688 C469.221385,216.429688 475.60153,215.518238 482.164062,213.695312 C488.726595,211.872387 496.929638,209.320329 506.773438,206.039062 C516.617237,202.757796 523.179671,201.117188 526.460938,201.117188 C529.742204,201.117188 531.382812,202.028637 531.382812,203.851562 C531.382812,204.763025 531.200523,205.76562 530.835938,206.859375 C503.127466,219.437563 481.526119,225.726562 466.03125,225.726562 C457.281206,225.726562 450.49091,223.721374 445.660156,219.710938 C440.829403,215.700501 438.414062,211.006537 438.414062,205.628906 C438.414062,200.251275 439.416657,194.828152 441.421875,189.359375 C445.979189,177.145772 453.361928,167.757845 463.570312,161.195312 C469.585968,157.184876 475.145808,155.179688 480.25,155.179688 C489.182336,155.179688 496.65622,160.374948 502.671875,170.765625 L502.671875,171.585938 L497.75,176.507812 C493.921856,168.304646 488.63545,164.203125 481.890625,164.203125 C479.520821,164.203125 477.059909,164.749995 474.507812,165.84375 C465.575476,168.942724 458.283882,175.778593 452.632812,186.351562 C448.804668,193.460973 446.890625,200.570277 446.890625,207.679688 C448.713551,213.51305 454.091101,216.429688 463.023438,216.429688 Z M596.734375,156.546875 C591.44789,170.036526 588.804688,182.614525 588.804688,194.28125 C588.804688,213.604263 599.286354,223.265625 620.25,223.265625 C625.536485,222.536455 629.501289,221.442716 632.144531,219.984375 C634.787774,218.526034 637.658839,216.019549 640.757812,212.464844 C643.856786,208.910138 646.864569,205.947929 649.78125,203.578125 L651.148438,203.578125 C650.236975,213.786509 646.727895,220.667951 640.621094,224.222656 C634.514292,227.777362 626.174532,229.554688 615.601562,229.554688 C592.81499,229.554688 580.510426,219.984471 578.6875,200.84375 C577.776037,205.583357 573.628943,211.097625 566.246094,217.386719 C558.863244,223.675813 552.255238,226.820312 546.421875,226.820312 L545.054688,226.820312 C533.752548,223.721339 528.101562,216.976614 528.101562,206.585938 C528.101562,193.096287 535.119721,179.971418 549.15625,167.210938 C560.093805,157.184846 570.757761,152.171875 581.148438,152.171875 C586.9818,152.171875 592.177061,153.630194 596.734375,156.546875 Z M536.578125,205.21875 C536.578125,208.135431 536.714842,210.459627 536.988281,212.191406 C537.26172,213.923186 538.173169,215.518222 539.722656,216.976562 C541.272143,218.434903 543.505194,219.164062 546.421875,219.164062 C554.442748,218.799477 562.509074,212.37376 570.621094,199.886719 C578.733113,187.399677 583.062497,176.690149 583.609375,167.757812 C580.692694,164.111961 576.682317,162.289062 571.578125,162.289062 C565.015592,162.289062 558.179723,166.481729 551.070312,174.867188 C543.960902,183.252646 539.130221,193.369732 536.578125,205.21875 Z" id="Becca" fill="#000000"></path>
    </g>
</svg>