<?xml version="1.0" encoding="UTF-8"?>
<svg width="276px" height="143px" viewBox="0 0 276 143" version="1.1" xmlns="http://www.w3.org/2000/svg" xmlns:xlink="http://www.w3.org/1999/xlink">
    <!-- Generator: Sketch 52.6 (67491) - http://www.bohemiancoding.com/sketch -->
    <title>title</title>
    <desc>Created with Sketch.</desc>
    <g id="Becca" stroke="none" stroke-width="1" fill="none" fill-rule="evenodd">
        <g id="iPhone-XS" transform="translate(-28.000000, -36.000000)" fill="#000000">
            <path d="M187.649414,70.7490234 L187.649414,61.2958984 L187.541992,61.0810547 C184.17609,61.0094397 181.526377,60.9736328 179.592773,60.9736328 C174.078423,60.9736328 171.321289,61.0631501 171.321289,61.2421875 L171.321289,70.5341797 C171.321289,72.611013 171.48242,74.2760354 171.804688,75.5292969 C171.876302,75.7799492 172.3776,76.021646 173.308594,76.2543945 C174.239588,76.4871431 174.884113,76.6035156 175.242188,76.6035156 C175.34961,76.6035156 175.412272,76.8183572 175.430176,77.2480469 C175.44808,77.6777365 175.421224,77.9820955 175.349609,78.1611328 C171.768862,77.9820955 169.69206,77.8925781 169.119141,77.8925781 C168.940103,77.8925781 166.791687,77.9820955 162.673828,78.1611328 C162.530598,78.0179029 162.458984,77.7493509 162.458984,77.3554688 C162.458984,76.8541642 162.530598,76.6035156 162.673828,76.6035156 C163.139325,76.6035156 163.828609,76.4960948 164.741699,76.28125 C165.65479,76.0664052 166.165039,75.8157566 166.272461,75.5292969 C166.523113,74.5624952 166.648438,72.9690866 166.648438,70.7490234 L166.648438,49.9091797 C166.648438,47.6891165 166.523113,46.095708 166.272461,45.1289062 C166.165039,44.8424465 165.65479,44.5828462 164.741699,44.3500977 C163.828609,44.1173491 163.139325,44.0009766 162.673828,44.0009766 C162.530598,44.0009766 162.458984,43.7682315 162.458984,43.3027344 C162.458984,42.8730447 162.530598,42.5865893 162.673828,42.4433594 C163.139325,42.4791668 164.088209,42.541829 165.520508,42.6313477 C166.952807,42.7208663 168.152339,42.765625 169.119141,42.765625 C169.83529,42.765625 170.533525,42.7477215 171.213867,42.7119141 C171.894209,42.6761066 172.628251,42.6313479 173.416016,42.5776367 C174.20378,42.5239255 174.848305,42.4791668 175.349609,42.4433594 C175.421224,42.5865893 175.44808,42.8819965 175.430176,43.3295898 C175.412272,43.7771832 175.34961,44.0009766 175.242188,44.0009766 C174.884113,44.0009766 174.239588,44.1263008 173.308594,44.3769531 C172.3776,44.6276054 171.876302,44.878254 171.804688,45.1289062 C171.48242,46.3821677 171.321289,48.0471901 171.321289,50.1240234 L171.321289,58.1269531 L171.428711,58.2880859 C174.937843,58.3597009 177.65917,58.3955078 179.592773,58.3955078 C181.669607,58.3955078 184.31932,58.3597009 187.541992,58.2880859 C187.613607,58.216471 187.649414,58.1448571 187.649414,58.0732422 L187.649414,49.9091797 C187.649414,47.6891165 187.52409,46.095708 187.273438,45.1289062 C187.166015,44.8424465 186.655766,44.5828462 185.742676,44.3500977 C184.829585,44.1173491 184.140302,44.0009766 183.674805,44.0009766 C183.531575,44.0009766 183.459961,43.7771832 183.459961,43.3295898 C183.459961,42.8819965 183.531575,42.5865893 183.674805,42.4433594 C184.104494,42.4791668 185.053378,42.541829 186.521484,42.6313477 C187.989591,42.7208663 189.207026,42.765625 190.173828,42.765625 C190.85417,42.765625 191.534502,42.7477215 192.214844,42.7119141 C192.895186,42.6761066 193.620276,42.6313479 194.390137,42.5776367 C195.159997,42.5239255 195.79557,42.4791668 196.296875,42.4433594 C196.36849,42.6582042 196.404297,42.9267562 196.404297,43.2490234 C196.404297,43.750328 196.332683,44.0009766 196.189453,44.0009766 C195.831378,44.0009766 195.186854,44.1263008 194.255859,44.3769531 C193.324865,44.6276054 192.823568,44.878254 192.751953,45.1289062 C192.465493,46.2389378 192.322266,47.9039603 192.322266,50.1240234 L192.322266,70.5341797 C192.322266,72.7542429 192.465493,74.4192653 192.751953,75.5292969 C192.823568,75.7799492 193.324865,76.021646 194.255859,76.2543945 C195.186854,76.4871431 195.831378,76.6035156 196.189453,76.6035156 C196.332683,76.6035156 196.404297,76.8720676 196.404297,77.4091797 C196.404297,77.6956395 196.36849,77.946288 196.296875,78.1611328 C192.716128,77.9820955 190.675133,77.8925781 190.173828,77.8925781 C189.958983,77.8925781 187.792664,77.9820955 183.674805,78.1611328 C183.531575,78.0179029 183.459961,77.7224957 183.459961,77.2749023 C183.459961,76.827309 183.531575,76.6035156 183.674805,76.6035156 C184.140302,76.6035156 184.829585,76.4960948 185.742676,76.28125 C186.655766,76.0664052 187.166015,75.8157566 187.273438,75.5292969 C187.52409,74.5624952 187.649414,72.9690866 187.649414,70.7490234 Z M210.476562,56.5693359 C208.614574,56.5693359 207.191248,57.3660402 206.206543,58.9594727 C205.221838,60.5529051 204.729492,61.8688099 204.729492,62.9072266 C204.729492,63.1578789 204.836913,63.2832031 205.051758,63.2832031 L215.525391,63.2832031 C215.704428,63.2832031 215.793945,63.1041685 215.793945,62.7460938 C215.793945,61.6002547 215.310552,60.2843499 214.34375,58.7983398 C213.376948,57.3123298 212.087899,56.5693359 210.476562,56.5693359 Z M211.013672,54.5820312 C212.660816,54.5820312 214.110996,54.8953419 215.364258,55.5219727 C216.617519,56.1486034 217.575355,56.9542594 218.237793,57.9389648 C218.900231,58.9236703 219.383625,59.9262644 219.687988,60.9467773 C219.992352,61.9672903 220.144531,62.9788361 220.144531,63.9814453 C220.144531,64.6975947 220.03711,65.1362297 219.822266,65.2973633 C219.607421,65.4584969 219.195641,65.5390625 218.586914,65.5390625 L205.051758,65.5390625 C204.765298,65.5390625 204.62207,65.6285798 204.62207,65.8076172 C204.62207,68.0634878 205.302402,70.14029 206.663086,72.0380859 C208.02377,73.9358819 209.993151,74.8847656 212.571289,74.8847656 C213.323246,74.8847656 214.039385,74.8131518 214.719727,74.6699219 C215.400069,74.526692 215.981931,74.3566091 216.465332,74.159668 C216.948733,73.9627269 217.360513,73.7657887 217.700684,73.5688477 C218.040855,73.3719066 218.336262,73.1839202 218.586914,73.0048828 L218.962891,72.7363281 C219.177735,72.7363281 219.285156,72.9690732 219.285156,73.4345703 C219.285156,73.7210301 219.177735,74.0432925 218.962891,74.4013672 C218.246741,75.4039764 217.190437,76.3081014 215.793945,77.1137695 C214.397454,77.9194376 212.875659,78.3222656 211.228516,78.3222656 C208.256496,78.3222656 205.705252,77.203299 203.574707,74.965332 C201.444163,72.7273651 200.378906,69.9970864 200.378906,66.7744141 C200.378906,63.0146296 201.390452,60.0426542 203.413574,57.8583984 C205.436696,55.6741427 207.970037,54.5820312 211.013672,54.5820312 Z M226.160156,71.7695312 L226.160156,48.5126953 C226.160156,47.2952413 226.052735,46.1494194 225.837891,45.0751953 C225.658853,44.5022758 224.745776,44.2158203 223.098633,44.2158203 L222.615234,44.2158203 C222.40039,44.2158203 222.292969,44.0188822 222.292969,43.625 C222.292969,43.0520805 222.40039,42.765625 222.615234,42.765625 C223.689458,42.6582026 224.683101,42.5149749 225.596191,42.3359375 C226.509282,42.1569001 227.225421,41.9778655 227.744629,41.7988281 C228.263837,41.6197908 228.702472,41.4497078 229.060547,41.2885742 C229.418622,41.1274406 229.687174,40.9931646 229.866211,40.8857422 L230.081055,40.7246094 L230.188477,40.7246094 C230.331706,40.7246094 230.474934,40.8230784 230.618164,41.0200195 C230.761394,41.2169606 230.850911,41.404947 230.886719,41.5839844 C230.492837,42.7298234 230.295898,44.287425 230.295898,46.2568359 L230.295898,70.7490234 C230.295898,72.8258567 230.439126,74.4192653 230.725586,75.5292969 C230.797201,75.7799492 231.262691,76.021646 232.12207,76.2543945 C232.98145,76.4871431 233.590167,76.6035156 233.948242,76.6035156 C234.055665,76.6035156 234.127278,76.8183572 234.163086,77.2480469 C234.198893,77.6777365 234.18099,77.9820955 234.109375,78.1611328 C230.528628,77.9820955 228.612957,77.8925781 228.362305,77.8925781 C228.14746,77.8925781 226.195982,77.9820955 222.507812,78.1611328 C222.364583,78.0179029 222.292969,77.7224957 222.292969,77.2749023 C222.292969,76.827309 222.364583,76.6035156 222.507812,76.6035156 C222.937502,76.6035156 223.573075,76.4871431 224.414551,76.2543945 C225.256026,76.021646 225.712565,75.7799492 225.78418,75.5292969 C226.034832,74.4908802 226.160156,73.2376375 226.160156,71.7695312 Z M249.416992,54.5820312 C252.854509,54.5820312 255.540029,55.7368049 257.473633,58.0463867 C259.407236,60.3559686 260.374023,62.8176953 260.374023,65.4316406 C260.374023,68.8691578 259.174491,71.8948437 256.775391,74.5087891 C254.37629,77.1227344 251.654963,78.4296875 248.611328,78.4296875 C248.074216,78.4296875 247.599774,78.411784 247.187988,78.3759766 C246.776202,78.3401691 246.409181,78.277507 246.086914,78.1879883 C245.764647,78.0984696 245.513998,78.017904 245.334961,77.9462891 C245.155924,77.8746741 244.923179,77.7762051 244.636719,77.6508789 C244.350259,77.5255528 244.171224,77.4449872 244.099609,77.4091797 C243.956379,77.588217 243.884766,77.8209621 243.884766,78.1074219 L243.884766,82.7265625 C243.884766,84.8033958 244.027993,86.3968043 244.314453,87.5068359 C244.386068,87.7574882 244.851558,87.999185 245.710938,88.2319336 C246.570317,88.4646822 247.179035,88.5810547 247.537109,88.5810547 C247.644532,88.5810547 247.716146,88.804848 247.751953,89.2524414 C247.787761,89.7000348 247.769857,89.995442 247.698242,90.1386719 C244.117495,89.9596345 242.201824,89.8701172 241.951172,89.8701172 C241.736327,89.8701172 239.784849,89.9596345 236.09668,90.1386719 C235.95345,89.995442 235.881836,89.7000348 235.881836,89.2524414 C235.881836,88.804848 235.95345,88.5810547 236.09668,88.5810547 C236.526369,88.5810547 237.161942,88.4646822 238.003418,88.2319336 C238.844894,87.999185 239.301432,87.7574882 239.373047,87.5068359 C239.623699,86.4684193 239.749023,85.2151766 239.749023,83.7470703 L239.749023,61.5644531 C239.749023,60.1679618 239.498375,59.2011746 238.99707,58.6640625 C238.638996,58.2343729 238.200361,57.9389656 237.681152,57.777832 C237.161944,57.6166984 236.732261,57.5361328 236.39209,57.5361328 C236.051919,57.5361328 235.881836,57.5003259 235.881836,57.4287109 C235.881836,56.5693316 235.989257,56.121745 236.204102,56.0859375 C239.999693,55.513018 242.470372,55.0475278 243.616211,54.6894531 C243.652018,54.6894531 243.705729,54.6805014 243.777344,54.6625977 L243.884766,54.6357422 C243.992188,54.6357422 244.045898,54.7342113 244.045898,54.9311523 C244.045898,55.1280934 244.027995,55.3697902 243.992188,55.65625 C243.95638,55.9427098 243.938477,56.103841 243.938477,56.1396484 L243.938477,56.4619141 C244.439781,56.1038394 245.272292,55.7010114 246.436035,55.253418 C247.599778,54.8058246 248.59342,54.5820312 249.416992,54.5820312 Z M247.698242,57.2138672 C246.588211,57.2138672 245.675134,57.5092744 244.958984,58.1000977 C244.242835,58.6909209 243.884766,59.5413356 243.884766,60.6513672 L243.884766,72.7363281 C243.884766,73.7031298 244.403966,74.5177376 245.442383,75.1801758 C246.480799,75.842614 247.608718,76.1738281 248.826172,76.1738281 C250.938813,76.1738281 252.621739,75.2249444 253.875,73.3271484 C255.128261,71.4293525 255.754883,69.2988399 255.754883,66.9355469 C255.754883,63.9277193 254.958179,61.55551 253.364746,59.8188477 C251.771314,58.0821853 249.882498,57.2138672 247.698242,57.2138672 Z M272.673828,54.5283203 C273.461592,54.5283203 274.455235,54.6267894 275.654785,54.8237305 C276.854335,55.0206716 277.686847,55.1549476 278.152344,55.2265625 C278.510418,56.8737062 278.72526,58.6998598 278.796875,60.7050781 C278.796875,60.8841155 278.56413,60.9736328 278.098633,60.9736328 C277.597328,60.9736328 277.328776,60.8483085 277.292969,60.5976562 C277.113931,59.5950471 276.603683,58.6461633 275.762207,57.7509766 C274.920731,56.8557898 273.962896,56.4082031 272.888672,56.4082031 C270.310534,56.4082031 269.021484,57.4645077 269.021484,59.5771484 C269.021484,60.1142605 269.093098,60.5887024 269.236328,61.0004883 C269.379558,61.4122742 269.657062,61.8061505 270.068848,62.1821289 C270.480634,62.5581073 270.793944,62.8266594 271.008789,62.987793 C271.223634,63.1489266 271.698076,63.4353821 272.432129,63.847168 C273.166182,64.2589539 273.62272,64.5185542 273.801758,64.6259766 C273.944988,64.6975915 274.365719,64.9392883 275.063965,65.3510742 C275.762211,65.7628601 276.254556,66.0582673 276.541016,66.2373047 C276.827475,66.416342 277.248207,66.720701 277.803223,67.1503906 C278.358238,67.5800803 278.761066,67.9650048 279.011719,68.3051758 C279.262371,68.6453468 279.504068,69.07503 279.736816,69.5942383 C279.969565,70.1134466 280.085938,70.6415989 280.085938,71.1787109 C280.085938,73.2913517 279.262378,75.0548432 277.615234,76.4692383 C275.968091,77.8836334 274.034516,78.5908203 271.814453,78.5908203 C271.062496,78.5908203 270.373213,78.5460616 269.746582,78.456543 C269.119951,78.3670243 268.376957,78.2148448 267.517578,78 C266.658199,77.7851552 265.995771,77.6419274 265.530273,77.5703125 C265.315429,76.997393 265.109539,76.1022196 264.912598,74.8847656 C264.715657,73.6673116 264.617188,72.7005244 264.617188,71.984375 C264.903647,71.7695302 265.118489,71.6621094 265.261719,71.6621094 C265.798831,71.6621094 266.085286,71.7695302 266.121094,71.984375 C266.335939,73.0585991 267.007319,74.1059519 268.135254,75.1264648 C269.263189,76.1469778 270.489577,76.6572266 271.814453,76.6572266 C272.960292,76.6572266 273.900224,76.3439159 274.634277,75.7172852 C275.36833,75.0906544 275.735352,74.1865293 275.735352,73.0048828 C275.735352,72.3961558 275.618979,71.8321966 275.38623,71.3129883 C275.153482,70.79378 274.777509,70.3282898 274.258301,69.9165039 C273.739092,69.504718 273.255699,69.1645521 272.808105,68.8959961 C272.360512,68.6274401 271.724939,68.2783225 270.901367,67.8486328 C270.077795,67.4189432 269.469077,67.0787773 269.075195,66.828125 C266.282213,65.2167888 264.885742,63.3011179 264.885742,61.0810547 C264.885742,59.1474513 265.664543,57.5719462 267.222168,56.3544922 C268.779793,55.1370382 270.596995,54.5283203 272.673828,54.5283203 Z M51.5458984,118.546875 C51.5458984,116.255197 50.7760494,114.294767 49.2363281,112.665527 C47.6966069,111.036287 45.2796389,110.22168 41.9853516,110.22168 C41.1975872,110.22168 39.9085376,110.293294 38.1181641,110.436523 C37.9749342,110.866213 37.9033203,111.457027 37.9033203,112.208984 L37.9033203,120.050781 C37.9033203,122.772149 38.1897758,124.365558 38.7626953,124.831055 C39.2998074,125.332359 40.2665946,125.583008 41.6630859,125.583008 C42.5582727,125.583008 43.4444943,125.511394 44.3217773,125.368164 C45.1990604,125.224934 46.2464132,124.94743 47.4638672,124.535645 C48.6813212,124.123859 49.6660119,123.40772 50.4179688,122.387207 C51.1699256,121.366694 51.5458984,120.086596 51.5458984,118.546875 Z M33.2304688,120.319336 L33.2304688,100.016602 C33.2304688,97.9039608 33.1051445,96.3642626 32.8544922,95.3974609 C32.7470698,95.1110012 32.2189175,94.8424492 31.2700195,94.5917969 C30.3211216,94.3411446 29.6139346,94.2158203 29.1484375,94.2158203 C29.0052076,94.2158203 28.9335938,94.0009787 28.9335938,93.5712891 C28.9335938,93.1057919 29.0052076,92.801433 29.1484375,92.6582031 C31.010426,92.7298181 33.1409385,92.765625 35.5400391,92.765625 C37.3662201,92.765625 38.8611595,92.7566733 40.0249023,92.7387695 C41.1886451,92.7208658 42.2180945,92.7119141 43.1132812,92.7119141 C44.0442755,92.7119141 44.9931592,92.7924797 45.9599609,92.9536133 C46.9267626,93.1147469 47.9204051,93.4101541 48.940918,93.8398438 C49.9614309,94.2695334 50.865556,94.8066374 51.6533203,95.4511719 C52.4410847,96.0957063 53.0856095,96.946121 53.5869141,98.0024414 C54.0882187,99.0587618 54.3388672,100.231439 54.3388672,101.520508 C54.3388672,102.809577 53.9270875,104.009109 53.1035156,105.119141 C52.2799438,106.229172 51.5190465,106.999021 50.8208008,107.428711 C50.1225551,107.858401 49.522789,108.16276 49.0214844,108.341797 C48.7350246,108.449219 48.6455073,108.55664 48.7529297,108.664062 C50.149421,108.914715 51.8144435,109.926261 53.7480469,111.69873 C55.6816503,113.4712 56.6484375,115.556954 56.6484375,117.956055 C56.6484375,121.035497 55.4041466,123.47932 52.9155273,125.287598 C50.4269081,127.095875 47.1237185,128 43.0058594,128 L35.6474609,128 L29.1484375,128.161133 C29.0410151,128.05371 28.9873047,127.767255 28.9873047,127.301758 C28.9873047,126.836261 29.0410151,126.603516 29.1484375,126.603516 C29.6139346,126.603516 30.3032181,126.478191 31.2163086,126.227539 C32.1293991,125.976887 32.6754548,125.690431 32.8544922,125.368164 C33.1051445,124.938474 33.2304688,123.255549 33.2304688,120.319336 Z M44.4560547,107.804688 C45.924161,107.661458 47.1505485,107.151209 48.1352539,106.273926 C49.1199594,105.396643 49.6123047,104.223966 49.6123047,102.755859 C49.6123047,100.285144 48.9946351,98.3605212 47.7592773,96.9819336 C46.5239196,95.603346 44.6888143,94.9140625 42.2539062,94.9140625 C40.6067626,94.9140625 39.3356165,95.0393868 38.4404297,95.2900391 C38.2255849,95.3258465 38.1181641,95.4869777 38.1181641,95.7734375 L37.9033203,101.198242 L37.9033203,107.589844 C37.9033203,107.840496 39.0849491,107.96582 41.4482422,107.96582 C42.5940813,107.96582 43.5966754,107.91211 44.4560547,107.804688 Z M82.1611328,109.68457 L82.1611328,120.426758 C82.1611328,121.966479 82.2864571,123.327143 82.5371094,124.508789 C82.6087243,124.759441 82.8056625,124.956379 83.1279297,125.099609 C83.4501969,125.242839 83.7903628,125.332357 84.1484375,125.368164 C84.5065122,125.403972 84.8645815,125.421875 85.2226562,125.421875 L85.7060547,125.475586 C85.8134771,125.511393 85.8671875,125.708332 85.8671875,126.066406 C85.8671875,126.173829 85.8224288,126.343912 85.7329102,126.57666 C85.6433915,126.809409 85.5449224,126.925781 85.4375,126.925781 C84.9003879,126.961589 84.3006218,127.033203 83.6381836,127.140625 C82.9757454,127.248047 82.3580758,127.373372 81.7851562,127.516602 C81.2122367,127.659831 80.6751327,127.803059 80.1738281,127.946289 C79.6725235,128.089519 79.2786473,128.214843 78.9921875,128.322266 L78.5087891,128.429688 C78.2223293,128.429688 78.0791016,128.143232 78.0791016,127.570312 L78.0791016,124.831055 L77.9716797,124.5625 C75.6083866,127.10483 73.2630325,128.375977 70.9355469,128.375977 C69.6106705,128.375977 68.4738003,128.044762 67.5249023,127.382324 C66.5760044,126.719886 65.8777692,125.842616 65.4301758,124.750488 C64.9825824,123.65836 64.6692717,122.602056 64.4902344,121.581543 C64.311197,120.56103 64.2216797,119.495774 64.2216797,118.385742 L64.2216797,111.618164 C64.2216797,110.221673 63.9710312,109.254885 63.4697266,108.717773 C63.1116519,108.288084 62.6730169,107.992677 62.1538086,107.831543 C61.6346003,107.670409 61.2049171,107.589844 60.8647461,107.589844 C60.5245751,107.589844 60.3544922,107.554037 60.3544922,107.482422 C60.3544922,106.623043 60.461913,106.175456 60.6767578,106.139648 C64.4723497,105.566729 66.9430281,105.101239 68.0888672,104.743164 C68.1246747,104.743164 68.1783851,104.734212 68.25,104.716309 L68.3574219,104.689453 C68.5006518,104.689453 68.5901691,104.841633 68.6259766,105.145996 C68.661784,105.45036 68.661784,105.674153 68.6259766,105.817383 C68.4111317,107.536141 68.3037109,108.860998 68.3037109,109.791992 L68.3037109,117.042969 C68.3037109,119.800144 68.7154907,121.832187 69.5390625,123.13916 C70.3626343,124.446133 71.7053943,125.099609 73.5673828,125.099609 C74.6416069,125.099609 75.6621045,124.678878 76.6289062,123.837402 C77.595708,122.995927 78.0791016,122.270836 78.0791016,121.662109 L78.0791016,111.618164 C78.0791016,110.221673 77.828453,109.254885 77.3271484,108.717773 C76.9690737,108.288084 76.5304388,107.992677 76.0112305,107.831543 C75.4920221,107.670409 75.0623389,107.589844 74.722168,107.589844 C74.381997,107.589844 74.2119141,107.554037 74.2119141,107.482422 C74.2119141,106.623043 74.3193349,106.175456 74.5341797,106.139648 C78.3297716,105.566729 80.80045,105.101239 81.9462891,104.743164 C81.9820965,104.743164 82.0358069,104.734212 82.1074219,104.716309 L82.2148438,104.689453 C82.3580736,104.689453 82.447591,104.841633 82.4833984,105.145996 C82.5192059,105.45036 82.5192059,105.674153 82.4833984,105.817383 C82.2685536,107.536141 82.1611328,108.825191 82.1611328,109.68457 Z M96.8242188,104.52832 C97.6119831,104.52832 98.6056255,104.626789 99.8051758,104.82373 C101.004726,105.020672 101.837237,105.154948 102.302734,105.226562 C102.660809,106.873706 102.875651,108.69986 102.947266,110.705078 C102.947266,110.884115 102.714521,110.973633 102.249023,110.973633 C101.747719,110.973633 101.479167,110.848309 101.443359,110.597656 C101.264322,109.595047 100.754073,108.646163 99.9125977,107.750977 C99.0711221,106.85579 98.1132866,106.408203 97.0390625,106.408203 C94.4609246,106.408203 93.171875,107.464508 93.171875,109.577148 C93.171875,110.11426 93.2434889,110.588702 93.3867188,111.000488 C93.5299486,111.412274 93.8074524,111.80615 94.2192383,112.182129 C94.6310242,112.558107 94.9443349,112.826659 95.1591797,112.987793 C95.3740245,113.148927 95.8484664,113.435382 96.5825195,113.847168 C97.3165727,114.258954 97.7731111,114.518554 97.9521484,114.625977 C98.0953783,114.697592 98.5161098,114.939288 99.2143555,115.351074 C99.9126011,115.76286 100.404946,116.058267 100.691406,116.237305 C100.977866,116.416342 101.398597,116.720701 101.953613,117.150391 C102.508629,117.58008 102.911457,117.965005 103.162109,118.305176 C103.412762,118.645347 103.654458,119.07503 103.887207,119.594238 C104.119956,120.113447 104.236328,120.641599 104.236328,121.178711 C104.236328,123.291352 103.412769,125.054843 101.765625,126.469238 C100.118481,127.883633 98.1849069,128.59082 95.9648438,128.59082 C95.2128869,128.59082 94.5236034,128.546062 93.8969727,128.456543 C93.2703419,128.367024 92.527348,128.214845 91.6679688,128 C90.8085895,127.785155 90.1461612,127.641927 89.6806641,127.570312 C89.4658192,126.997393 89.2599294,126.10222 89.0629883,124.884766 C88.8660472,123.667312 88.7675781,122.700524 88.7675781,121.984375 C89.0540379,121.76953 89.2688795,121.662109 89.4121094,121.662109 C89.9492214,121.662109 90.2356769,121.76953 90.2714844,121.984375 C90.4863292,123.058599 91.1577092,124.105952 92.2856445,125.126465 C93.4135799,126.146978 94.6399673,126.657227 95.9648438,126.657227 C97.1106828,126.657227 98.0506148,126.343916 98.784668,125.717285 C99.5187211,125.090654 99.8857422,124.186529 99.8857422,123.004883 C99.8857422,122.396156 99.7693697,121.832197 99.5366211,121.312988 C99.3038725,120.79378 98.9278997,120.32829 98.4086914,119.916504 C97.8894831,119.504718 97.4060895,119.164552 96.9584961,118.895996 C96.5109027,118.62744 95.8753296,118.278322 95.0517578,117.848633 C94.228186,117.418943 93.6194681,117.078777 93.2255859,116.828125 C90.4326032,115.216789 89.0361328,113.301118 89.0361328,111.081055 C89.0361328,109.147451 89.8149336,107.571946 91.3725586,106.354492 C92.9301836,105.137038 94.7473854,104.52832 96.8242188,104.52832 Z M111.970703,104.958008 C112.57943,104.958008 113.143389,104.940104 113.662598,104.904297 C114.181806,104.868489 114.77262,104.832682 115.435059,104.796875 C116.097497,104.761068 116.679359,104.725261 117.180664,104.689453 C117.252279,104.904298 117.288086,105.17285 117.288086,105.495117 C117.288086,105.996422 117.216472,106.24707 117.073242,106.24707 C116.786782,106.24707 116.312341,106.372395 115.649902,106.623047 C114.987464,106.873699 114.620443,107.124348 114.548828,107.375 L114.548828,107.482422 C114.548828,108.126956 116.464499,112.799761 120.295898,121.500977 L124.37793,109.738281 C124.628582,108.986324 124.753906,108.431317 124.753906,108.073242 C124.753906,107.53613 124.476403,107.097495 123.921387,106.757324 C123.366371,106.417153 122.623377,106.24707 121.692383,106.24707 C121.549153,106.24707 121.477539,106.014325 121.477539,105.548828 C121.477539,105.119138 121.549153,104.832683 121.692383,104.689453 L123.787109,104.850586 C124.718104,104.922201 125.613277,104.958008 126.472656,104.958008 C127.260421,104.958008 128.119787,104.922201 129.050781,104.850586 L131.145508,104.689453 C131.217123,104.904298 131.25293,105.17285 131.25293,105.495117 C131.25293,105.996422 131.181316,106.24707 131.038086,106.24707 C130.572589,106.24707 129.937016,106.408202 129.131348,106.730469 C128.32568,107.052736 127.797527,107.571937 127.546875,108.288086 L117.932617,134.230469 C117.109045,136.450532 116.178065,137.999182 115.139648,138.876465 C114.101232,139.753748 113.152348,140.192383 112.292969,140.192383 C111.541012,140.192383 110.986004,139.959638 110.62793,139.494141 C110.269855,139.028644 110.09082,138.563153 110.09082,138.097656 C110.09082,137.309892 110.341469,136.736981 110.842773,136.378906 C113.814794,136.378906 115.784175,134.839208 116.750977,131.759766 L117.395508,129.826172 C117.64616,129.074215 117.843098,128.465497 117.986328,128 L110.305664,109.201172 C109.911782,108.341793 109.553713,107.733075 109.231445,107.375 C108.909178,107.052733 108.416833,106.784181 107.754395,106.569336 C107.091956,106.354491 106.563804,106.24707 106.169922,106.24707 C106.026692,106.24707 105.955078,106.014325 105.955078,105.548828 C105.955078,105.119138 106.026692,104.832683 106.169922,104.689453 C109.858091,104.86849 111.791666,104.958008 111.970703,104.958008 Z M176.584961,118.170898 C176.584961,118.564781 176.334312,119.934396 175.833008,122.279785 C175.331703,124.625174 174.973634,125.851562 174.758789,125.958984 C172.144844,127.534513 167.865915,128.322266 161.921875,128.322266 C157.195289,128.322266 153.175961,126.585629 149.86377,123.112305 C146.551578,119.63898 144.895508,115.503279 144.895508,110.705078 C144.895508,105.620417 146.596337,101.260923 149.998047,97.6264648 C153.399757,93.9920066 157.571264,92.1748047 162.512695,92.1748047 C166.737977,92.1748047 171.088519,92.6223914 175.564453,93.5175781 C175.492838,98.3157792 175.457031,100.893878 175.457031,101.251953 C175.457031,101.789065 175.081058,102.057617 174.329102,102.057617 C173.971027,102.057617 173.738282,101.9681 173.630859,101.789062 C173.523437,101.323565 173.389161,100.849124 173.228027,100.365723 C173.066894,99.8823218 172.726728,99.2557005 172.20752,98.4858398 C171.688311,97.7159792 171.06169,97.053551 170.327637,96.4985352 C169.593584,95.9435194 168.555182,95.4601258 167.212402,95.0483398 C165.869622,94.6365539 164.356779,94.4306641 162.673828,94.4306641 C159.164696,94.4306641 156.174817,95.9793139 153.704102,99.0766602 C151.233386,102.174006 149.998047,105.674134 149.998047,109.577148 C149.998047,112.477554 150.499344,115.14517 151.501953,117.580078 C152.504562,120.014986 154.089019,122.029126 156.255371,123.622559 C158.421723,125.215991 160.990871,126.012695 163.962891,126.012695 C167.50783,126.012695 170.247061,124.974294 172.180664,122.897461 C172.681969,122.360349 173.120604,121.653162 173.496582,120.775879 C173.87256,119.898596 174.159016,119.164554 174.355957,118.57373 C174.552898,117.982907 174.705078,117.6875 174.8125,117.6875 C175.027345,117.6875 175.286945,117.723307 175.591309,117.794922 C175.895672,117.866537 176.137369,117.938151 176.316406,118.009766 L176.584961,118.170898 Z M194.524414,104.474609 C196.923515,104.474609 198.642247,105.333976 199.680664,107.052734 C200.719081,108.771493 201.238281,111.421206 201.238281,115.001953 L201.238281,120.802734 C201.238281,122.84376 201.381509,124.419265 201.667969,125.529297 C201.739584,125.779949 202.205074,126.021646 203.064453,126.254395 C203.923832,126.487143 204.53255,126.603516 204.890625,126.603516 C204.998047,126.603516 205.069661,126.818357 205.105469,127.248047 C205.141276,127.677737 205.123373,127.982095 205.051758,128.161133 C201.471011,127.982095 199.55534,127.892578 199.304688,127.892578 C199.197265,127.892578 197.317401,127.982095 193.665039,128.161133 C193.521809,128.017903 193.450195,127.722496 193.450195,127.274902 C193.450195,126.827309 193.521809,126.603516 193.665039,126.603516 C194.094729,126.603516 194.694495,126.487143 195.464355,126.254395 C196.234216,126.021646 196.654948,125.779949 196.726562,125.529297 C196.977215,124.49088 197.102539,123.237638 197.102539,121.769531 L197.102539,116.076172 C197.102539,112.781885 196.646001,110.570806 195.73291,109.442871 C194.81982,108.314936 193.414398,107.750977 191.516602,107.750977 C190.442377,107.750977 189.377121,108.171708 188.320801,109.013184 C187.26448,109.854659 186.736328,110.597653 186.736328,111.242188 L186.736328,120.749023 C186.736328,122.825857 186.879556,124.419265 187.166016,125.529297 C187.237631,125.779949 187.703121,126.021646 188.5625,126.254395 C189.421879,126.487143 190.030597,126.603516 190.388672,126.603516 C190.496094,126.603516 190.567708,126.818357 190.603516,127.248047 C190.639323,127.677737 190.62142,127.982095 190.549805,128.161133 C186.969058,127.982095 185.053387,127.892578 184.802734,127.892578 C184.58789,127.892578 182.636412,127.982095 178.948242,128.161133 C178.805012,128.017903 178.733398,127.722496 178.733398,127.274902 C178.733398,126.827309 178.805012,126.603516 178.948242,126.603516 C179.377932,126.603516 180.013505,126.487143 180.85498,126.254395 C181.696456,126.021646 182.152994,125.779949 182.224609,125.529297 C182.475262,124.49088 182.600586,123.255541 182.600586,121.823242 L182.600586,98.5126953 C182.600586,97.2952413 182.493165,96.1494194 182.27832,95.0751953 C182.099283,94.5022758 181.186206,94.2158203 179.539062,94.2158203 L179.055664,94.2158203 C178.840819,94.2158203 178.733398,94.0188822 178.733398,93.625 C178.733398,93.0520805 178.840819,92.765625 179.055664,92.765625 C180.129888,92.6582026 181.123531,92.5149749 182.036621,92.3359375 C182.949712,92.1569001 183.66585,91.9778655 184.185059,91.7988281 C184.704267,91.6197908 185.142902,91.4497078 185.500977,91.2885742 C185.859051,91.1274406 186.1097,90.9931646 186.25293,90.8857422 L186.521484,90.7246094 L186.628906,90.7246094 C186.772136,90.7246094 186.915364,90.8230784 187.058594,91.0200195 C187.201824,91.2169606 187.291341,91.404947 187.327148,91.5839844 C186.933266,92.7298234 186.736328,94.287425 186.736328,96.2568359 L186.736328,108.019531 C186.736328,108.162761 186.772135,108.234375 186.84375,108.234375 C186.879557,108.234375 186.933268,108.198568 187.004883,108.126953 C187.792647,107.267574 188.911614,106.444014 190.361816,105.65625 C191.812019,104.868486 193.199538,104.474609 194.524414,104.474609 Z M229.597656,109.68457 L229.597656,120.426758 C229.597656,121.966479 229.722981,123.327143 229.973633,124.508789 C230.045248,124.759441 230.242186,124.956379 230.564453,125.099609 C230.88672,125.242839 231.226886,125.332357 231.584961,125.368164 C231.943036,125.403972 232.301105,125.421875 232.65918,125.421875 L233.142578,125.475586 C233.250001,125.511393 233.303711,125.708332 233.303711,126.066406 C233.303711,126.173829 233.258952,126.343912 233.169434,126.57666 C233.079915,126.809409 232.981446,126.925781 232.874023,126.925781 C232.336911,126.961589 231.737145,127.033203 231.074707,127.140625 C230.412269,127.248047 229.794599,127.373372 229.22168,127.516602 C228.64876,127.659831 228.111656,127.803059 227.610352,127.946289 C227.109047,128.089519 226.715171,128.214843 226.428711,128.322266 L225.945312,128.429688 C225.658853,128.429688 225.515625,128.143232 225.515625,127.570312 L225.515625,124.831055 L225.408203,124.5625 C223.04491,127.10483 220.699556,128.375977 218.37207,128.375977 C217.047194,128.375977 215.910324,128.044762 214.961426,127.382324 C214.012528,126.719886 213.314293,125.842616 212.866699,124.750488 C212.419106,123.65836 212.105795,122.602056 211.926758,121.581543 C211.74772,120.56103 211.658203,119.495774 211.658203,118.385742 L211.658203,111.618164 C211.658203,110.221673 211.407555,109.254885 210.90625,108.717773 C210.548175,108.288084 210.10954,107.992677 209.590332,107.831543 C209.071124,107.670409 208.641441,107.589844 208.30127,107.589844 C207.961099,107.589844 207.791016,107.554037 207.791016,107.482422 C207.791016,106.623043 207.898436,106.175456 208.113281,106.139648 C211.908873,105.566729 214.379552,105.101239 215.525391,104.743164 C215.561198,104.743164 215.614908,104.734212 215.686523,104.716309 L215.793945,104.689453 C215.937175,104.689453 216.026693,104.841633 216.0625,105.145996 C216.098307,105.45036 216.098307,105.674153 216.0625,105.817383 C215.847655,107.536141 215.740234,108.860998 215.740234,109.791992 L215.740234,117.042969 C215.740234,119.800144 216.152014,121.832187 216.975586,123.13916 C217.799158,124.446133 219.141918,125.099609 221.003906,125.099609 C222.07813,125.099609 223.098628,124.678878 224.06543,123.837402 C225.032231,122.995927 225.515625,122.270836 225.515625,121.662109 L225.515625,111.618164 C225.515625,110.221673 225.264976,109.254885 224.763672,108.717773 C224.405597,108.288084 223.966962,107.992677 223.447754,107.831543 C222.928546,107.670409 222.498862,107.589844 222.158691,107.589844 C221.81852,107.589844 221.648438,107.554037 221.648438,107.482422 C221.648438,106.623043 221.755858,106.175456 221.970703,106.139648 C225.766295,105.566729 228.236973,105.101239 229.382812,104.743164 C229.41862,104.743164 229.47233,104.734212 229.543945,104.716309 L229.651367,104.689453 C229.794597,104.689453 229.884114,104.841633 229.919922,105.145996 C229.955729,105.45036 229.955729,105.674153 229.919922,105.817383 C229.705077,107.536141 229.597656,108.825191 229.597656,109.68457 Z M249.739258,104.52832 C251.851899,104.52832 253.248369,105.047521 253.928711,106.085938 C253.928711,107.339199 253.731773,108.252276 253.337891,108.825195 C252.944008,109.398115 252.460615,109.68457 251.887695,109.68457 C251.243161,109.68457 250.652346,109.380211 250.115234,108.771484 C249.578122,108.162757 248.84408,107.858398 247.913086,107.858398 C246.803054,107.858398 245.836267,108.377599 245.012695,109.416016 C244.189123,110.454432 243.777344,111.546544 243.777344,112.692383 L243.777344,120.749023 C243.777344,122.825857 243.920571,124.419265 244.207031,125.529297 C244.278646,125.779949 244.753088,126.021646 245.630371,126.254395 C246.507654,126.487143 247.125324,126.603516 247.483398,126.603516 C247.590821,126.603516 247.662435,126.818357 247.698242,127.248047 C247.73405,127.677737 247.716146,127.982095 247.644531,128.161133 C244.063784,127.982095 242.13021,127.892578 241.84375,127.892578 C241.628905,127.892578 239.677427,127.982095 235.989258,128.161133 C235.846028,128.017903 235.774414,127.722496 235.774414,127.274902 C235.774414,126.827309 235.846028,126.603516 235.989258,126.603516 C236.418947,126.603516 237.054521,126.487143 237.895996,126.254395 C238.737472,126.021646 239.19401,125.779949 239.265625,125.529297 C239.516277,124.49088 239.641602,123.237638 239.641602,121.769531 L239.641602,111.618164 C239.641602,110.221673 239.390953,109.254885 238.889648,108.717773 C238.531574,108.288084 238.092939,107.992677 237.57373,107.831543 C237.054522,107.670409 236.624839,107.589844 236.284668,107.589844 C235.944497,107.589844 235.774414,107.554037 235.774414,107.482422 C235.774414,106.623043 235.881835,106.175456 236.09668,106.139648 C239.892272,105.566729 242.36295,105.101239 243.508789,104.743164 C243.544597,104.743164 243.598307,104.734212 243.669922,104.716309 L243.777344,104.689453 C243.920574,104.689453 244.010091,104.841633 244.045898,105.145996 C244.081706,105.45036 244.081706,105.674153 244.045898,105.817383 L243.723633,108.50293 C244.368167,107.536128 245.254389,106.632003 246.382324,105.790527 C247.51026,104.949052 248.629226,104.52832 249.739258,104.52832 Z M266.819336,104.582031 C270.758158,104.582031 273.479485,105.495108 274.983398,107.321289 C274.983398,109.72039 274.32097,110.919922 272.996094,110.919922 C272.387367,110.919922 271.921877,110.785646 271.599609,110.51709 C271.277342,110.248534 270.865562,109.756188 270.364258,109.040039 C269.254226,107.392895 267.92937,106.569336 266.389648,106.569336 C264.921542,106.569336 263.587734,107.267571 262.388184,108.664062 C261.188633,110.060554 260.588867,112.137356 260.588867,114.894531 C260.588867,117.759129 261.296054,120.14029 262.710449,122.038086 C264.124844,123.935882 266.085274,124.884766 268.591797,124.884766 C269.343754,124.884766 270.059892,124.813152 270.740234,124.669922 C271.420576,124.526692 272.002439,124.356609 272.48584,124.159668 C272.969241,123.962727 273.38102,123.765789 273.721191,123.568848 C274.061362,123.371907 274.35677,123.18392 274.607422,123.004883 L274.983398,122.736328 C275.198243,122.736328 275.305664,122.969073 275.305664,123.43457 C275.305664,123.72103 275.198243,124.043292 274.983398,124.401367 C274.267249,125.403976 273.210944,126.308101 271.814453,127.11377 C270.417962,127.919438 268.896167,128.322266 267.249023,128.322266 C264.277003,128.322266 261.725759,127.203299 259.595215,124.965332 C257.46467,122.727365 256.399414,119.997086 256.399414,116.774414 C256.399414,113.480127 257.294587,110.624524 259.084961,108.20752 C260.875334,105.790515 263.453434,104.582031 266.819336,104.582031 Z M292.922852,104.474609 C295.321952,104.474609 297.040685,105.333976 298.079102,107.052734 C299.117518,108.771493 299.636719,111.421206 299.636719,115.001953 L299.636719,120.802734 C299.636719,122.84376 299.779946,124.419265 300.066406,125.529297 C300.138021,125.779949 300.603511,126.021646 301.462891,126.254395 C302.32227,126.487143 302.930988,126.603516 303.289062,126.603516 C303.396485,126.603516 303.468099,126.818357 303.503906,127.248047 C303.539714,127.677737 303.52181,127.982095 303.450195,128.161133 C299.869448,127.982095 297.953777,127.892578 297.703125,127.892578 C297.595703,127.892578 295.715839,127.982095 292.063477,128.161133 C291.920247,128.017903 291.848633,127.722496 291.848633,127.274902 C291.848633,126.827309 291.920247,126.603516 292.063477,126.603516 C292.493166,126.603516 293.092932,126.487143 293.862793,126.254395 C294.632654,126.021646 295.053385,125.779949 295.125,125.529297 C295.375652,124.49088 295.500977,123.237638 295.500977,121.769531 L295.500977,116.076172 C295.500977,112.781885 295.044438,110.570806 294.131348,109.442871 C293.218257,108.314936 291.812835,107.750977 289.915039,107.750977 C288.840815,107.750977 287.775559,108.171708 286.719238,109.013184 C285.662918,109.854659 285.134766,110.597653 285.134766,111.242188 L285.134766,120.749023 C285.134766,122.825857 285.277993,124.419265 285.564453,125.529297 C285.636068,125.779949 286.101558,126.021646 286.960938,126.254395 C287.820317,126.487143 288.429035,126.603516 288.787109,126.603516 C288.894532,126.603516 288.966146,126.818357 289.001953,127.248047 C289.037761,127.677737 289.019857,127.982095 288.948242,128.161133 C285.367495,127.982095 283.451824,127.892578 283.201172,127.892578 C282.986327,127.892578 281.034849,127.982095 277.34668,128.161133 C277.20345,128.017903 277.131836,127.722496 277.131836,127.274902 C277.131836,126.827309 277.20345,126.603516 277.34668,126.603516 C277.776369,126.603516 278.411942,126.487143 279.253418,126.254395 C280.094894,126.021646 280.551432,125.779949 280.623047,125.529297 C280.873699,124.49088 280.999023,123.255541 280.999023,121.823242 L280.999023,98.5126953 C280.999023,97.2952413 280.891603,96.1494194 280.676758,95.0751953 C280.49772,94.5022758 279.584644,94.2158203 277.9375,94.2158203 L277.454102,94.2158203 C277.239257,94.2158203 277.131836,94.0188822 277.131836,93.625 C277.131836,93.0520805 277.239257,92.765625 277.454102,92.765625 C278.528326,92.6582026 279.521968,92.5149749 280.435059,92.3359375 C281.348149,92.1569001 282.064288,91.9778655 282.583496,91.7988281 C283.102704,91.6197908 283.541339,91.4497078 283.899414,91.2885742 C284.257489,91.1274406 284.508137,90.9931646 284.651367,90.8857422 L284.919922,90.7246094 L285.027344,90.7246094 C285.170574,90.7246094 285.313801,90.8230784 285.457031,91.0200195 C285.600261,91.2169606 285.689778,91.404947 285.725586,91.5839844 C285.331704,92.7298234 285.134766,94.287425 285.134766,96.2568359 L285.134766,108.019531 C285.134766,108.162761 285.170573,108.234375 285.242188,108.234375 C285.277995,108.234375 285.331705,108.198568 285.40332,108.126953 C286.191085,107.267574 287.310051,106.444014 288.760254,105.65625 C290.210456,104.868486 291.597975,104.474609 292.922852,104.474609 Z M35.9697266,142.711914 C37.294603,142.711914 38.9417219,142.622397 40.9111328,142.443359 C41.1617851,143.266931 44.7066715,152.236568 51.5458984,169.352539 C51.5817059,169.424154 51.6533198,169.459961 51.7607422,169.459961 C51.9039721,169.459961 51.9934894,169.388347 52.0292969,169.245117 C55.538429,161.009399 58.3313698,154.223985 60.4082031,148.888672 L62.5566406,142.443359 C64.8483188,142.586589 66.3343065,142.658203 67.0146484,142.658203 C69.2347116,142.658203 71.2398999,142.586589 73.0302734,142.443359 C73.1376958,142.765627 73.1914062,143.034179 73.1914062,143.249023 C73.1914062,143.750328 73.1018889,144.000977 72.9228516,144.000977 L72.8154297,144.000977 C72.4215475,144.000977 71.902347,144.117349 71.2578125,144.350098 C70.613278,144.582846 70.1298844,144.824543 69.8076172,145.075195 C69.3779275,145.397463 69.1630859,146.596995 69.1630859,148.673828 C69.1630859,149.246748 69.3242171,156.515555 69.6464844,170.480469 C69.6822918,172.521495 69.9508438,174.168614 70.4521484,175.421875 C70.5953783,175.744142 71.1324823,176.021646 72.0634766,176.254395 C72.9944708,176.487143 73.6568991,176.603516 74.0507812,176.603516 C74.1940111,176.603516 74.265625,176.854164 74.265625,177.355469 C74.265625,177.677736 74.2298181,177.946288 74.1582031,178.161133 C70.5774561,177.982095 68.4469435,177.892578 67.7666016,177.892578 C67.5875642,177.892578 65.4391482,177.982095 61.3212891,178.161133 C61.1780592,178.017903 61.1064453,177.731447 61.1064453,177.301758 C61.1064453,176.836261 61.1780592,176.603516 61.3212891,176.603516 C61.6793638,176.603516 62.2254195,176.513998 62.9594727,176.334961 C63.6935258,176.155924 64.2216781,175.976889 64.5439453,175.797852 C64.973635,175.547199 65.1884766,174.77735 65.1884766,173.488281 L65.1884766,170.641602 L64.5439453,151.735352 C64.5081378,151.162432 64.4096688,150.491052 64.2485352,149.721191 C64.0874015,148.951331 63.9173186,148.566406 63.7382812,148.566406 C63.6666663,148.566406 63.577149,148.691731 63.4697266,148.942383 L52.2441406,175.797852 C51.5637987,177.337573 50.9013704,178.107422 50.2568359,178.107422 C50.1494135,178.107422 49.9882823,178.071615 49.7734375,178 L37.4736328,146.740234 C37.4020179,150.177752 37.2945971,154.116514 37.1513672,158.556641 C37.0081373,162.996767 36.882813,166.658026 36.7753906,169.540527 C36.6679682,172.423029 36.6142578,173.900065 36.6142578,173.97168 C36.6142578,174.616214 36.7216786,175.081704 36.9365234,175.368164 C37.1513683,175.654624 37.8048448,175.932128 38.8969727,176.200684 C39.9891005,176.46924 40.7141909,176.603516 41.0722656,176.603516 C41.2154955,176.603516 41.2871094,176.872068 41.2871094,177.40918 C41.2871094,177.695639 41.2513024,177.946288 41.1796875,178.161133 C37.5989404,177.982095 35.5221383,177.892578 34.9492188,177.892578 C34.8776038,177.892578 32.7828982,177.982095 28.6650391,178.161133 C28.4860017,177.982095 28.3964844,177.713543 28.3964844,177.355469 C28.3964844,176.854164 28.4860017,176.603516 28.6650391,176.603516 C29.1663437,176.603516 29.9093375,176.487143 30.894043,176.254395 C31.8787484,176.021646 32.532225,175.744142 32.8544922,175.421875 C33.4274117,174.777341 33.7496741,173.219739 33.8212891,170.749023 C33.892904,167.025046 33.9734696,163.354836 34.0629883,159.738281 C34.152507,156.121727 34.2330726,153.284027 34.3046875,151.225098 C34.3763024,149.166168 34.4121094,147.850263 34.4121094,147.277344 C34.4121094,146.382157 34.3404955,145.666018 34.1972656,145.128906 C34.0898432,144.842446 33.4811253,144.582846 32.3710938,144.350098 C31.2610622,144.117349 30.4554062,144.000977 29.9541016,144.000977 C29.8108717,144.000977 29.7392578,143.750328 29.7392578,143.249023 C29.7392578,142.855141 29.8108717,142.586589 29.9541016,142.443359 C30.5628286,142.479167 31.2342086,142.514974 31.9682617,142.550781 C32.7023149,142.586589 33.3736949,142.622396 33.9824219,142.658203 C34.5911489,142.694011 35.2535771,142.711914 35.9697266,142.711914 Z M87.9619141,156.569336 C86.0999256,156.569336 84.6766,157.36604 83.6918945,158.959473 C82.7071891,160.552905 82.2148438,161.86881 82.2148438,162.907227 C82.2148438,163.157879 82.3222646,163.283203 82.5371094,163.283203 L93.0107422,163.283203 C93.1897795,163.283203 93.2792969,163.104168 93.2792969,162.746094 C93.2792969,161.600255 92.7959033,160.28435 91.8291016,158.79834 C90.8622999,157.31233 89.5732502,156.569336 87.9619141,156.569336 Z M88.4990234,154.582031 C90.1461671,154.582031 91.5963479,154.895342 92.8496094,155.521973 C94.1028708,156.148603 95.0607063,156.954259 95.7231445,157.938965 C96.3855827,158.92367 96.8689763,159.926264 97.1733398,160.946777 C97.4777033,161.96729 97.6298828,162.978836 97.6298828,163.981445 C97.6298828,164.697595 97.522462,165.13623 97.3076172,165.297363 C97.0927724,165.458497 96.6809926,165.539062 96.0722656,165.539062 L82.5371094,165.539062 C82.2506496,165.539062 82.1074219,165.62858 82.1074219,165.807617 C82.1074219,168.063488 82.7877536,170.14029 84.1484375,172.038086 C85.5091214,173.935882 87.4785027,174.884766 90.0566406,174.884766 C90.8085975,174.884766 91.5247362,174.813152 92.2050781,174.669922 C92.8854201,174.526692 93.4672827,174.356609 93.9506836,174.159668 C94.4340844,173.962727 94.8458642,173.765789 95.1860352,173.568848 C95.5262061,173.371907 95.8216133,173.18392 96.0722656,173.004883 L96.4482422,172.736328 C96.663087,172.736328 96.7705078,172.969073 96.7705078,173.43457 C96.7705078,173.72103 96.663087,174.043292 96.4482422,174.401367 C95.7320928,175.403976 94.6757882,176.308101 93.2792969,177.11377 C91.8828055,177.919438 90.3610108,178.322266 88.7138672,178.322266 C85.7418471,178.322266 83.1906031,177.203299 81.0600586,174.965332 C78.9295141,172.727365 77.8642578,169.997086 77.8642578,166.774414 C77.8642578,163.01463 78.8758037,160.042654 80.8989258,157.858398 C82.9220479,155.674143 85.4553884,154.582031 88.4990234,154.582031 Z M116.160156,154.474609 C117.592455,154.474609 118.783036,154.859534 119.731934,155.629395 C120.680832,156.399255 121.334308,157.285477 121.692383,158.288086 C124.377943,155.745756 127.15298,154.474609 130.017578,154.474609 C134.529319,154.474609 136.785156,157.912075 136.785156,164.787109 L136.785156,170.749023 C136.785156,172.825857 136.928384,174.419265 137.214844,175.529297 C137.286459,175.779949 137.751949,176.021646 138.611328,176.254395 C139.470707,176.487143 140.079425,176.603516 140.4375,176.603516 C140.544922,176.603516 140.616536,176.818357 140.652344,177.248047 C140.688151,177.677737 140.670248,177.982095 140.598633,178.161133 C137.017886,177.982095 135.102215,177.892578 134.851562,177.892578 C134.636718,177.892578 132.68524,177.982095 128.99707,178.161133 C128.85384,178.017903 128.782227,177.722496 128.782227,177.274902 C128.782227,176.827309 128.85384,176.603516 128.99707,176.603516 C129.42676,176.603516 130.062333,176.487143 130.903809,176.254395 C131.745284,176.021646 132.201823,175.779949 132.273438,175.529297 C132.52409,174.49088 132.649414,173.345058 132.649414,172.091797 L132.649414,166.022461 C132.649414,160.50811 130.841164,157.750977 127.224609,157.750977 C125.899733,157.750977 124.753911,158.135901 123.787109,158.905762 C122.820308,159.675622 122.336914,160.311195 122.336914,160.8125 L122.390625,161.027344 L122.390625,161.295898 C122.533855,162.191085 122.605469,163.480135 122.605469,165.163086 L122.605469,171.232422 C122.605469,172.986988 122.748696,174.419265 123.035156,175.529297 C123.106771,175.779949 123.572261,176.021646 124.431641,176.254395 C125.29102,176.487143 125.899738,176.603516 126.257812,176.603516 C126.365235,176.603516 126.436849,176.818357 126.472656,177.248047 C126.508464,177.677737 126.49056,177.982095 126.418945,178.161133 C122.838198,177.982095 120.922527,177.892578 120.671875,177.892578 C120.45703,177.892578 118.505552,177.982095 114.817383,178.161133 C114.674153,178.017903 114.602539,177.722496 114.602539,177.274902 C114.602539,176.827309 114.674153,176.603516 114.817383,176.603516 C115.247072,176.603516 115.882646,176.487143 116.724121,176.254395 C117.565597,176.021646 118.022135,175.779949 118.09375,175.529297 C118.344402,174.49088 118.469727,173.237638 118.469727,171.769531 L118.469727,166.291016 C118.469727,160.597628 116.750994,157.750977 113.313477,157.750977 C112.239252,157.750977 111.156093,158.153805 110.063965,158.959473 C108.971837,159.765141 108.425781,160.543942 108.425781,161.295898 L108.425781,170.749023 C108.425781,172.825857 108.569009,174.419265 108.855469,175.529297 C108.927084,175.779949 109.392574,176.021646 110.251953,176.254395 C111.111332,176.487143 111.72005,176.603516 112.078125,176.603516 C112.185547,176.603516 112.257161,176.818357 112.292969,177.248047 C112.328776,177.677737 112.310873,177.982095 112.239258,178.161133 C108.658511,177.982095 106.74284,177.892578 106.492188,177.892578 C106.277343,177.892578 104.325865,177.982095 100.637695,178.161133 C100.494465,178.017903 100.422852,177.722496 100.422852,177.274902 C100.422852,176.827309 100.494465,176.603516 100.637695,176.603516 C101.067385,176.603516 101.702958,176.487143 102.544434,176.254395 C103.385909,176.021646 103.842448,175.779949 103.914062,175.529297 C104.164715,174.49088 104.290039,173.237638 104.290039,171.769531 L104.290039,161.618164 C104.290039,160.221673 104.039391,159.254885 103.538086,158.717773 C103.180011,158.288084 102.741376,157.992677 102.222168,157.831543 C101.70296,157.670409 101.273276,157.589844 100.933105,157.589844 C100.592934,157.589844 100.422852,157.554037 100.422852,157.482422 C100.422852,156.623043 100.530272,156.175456 100.745117,156.139648 C104.540709,155.566729 107.011387,155.101239 108.157227,154.743164 C108.193034,154.743164 108.246744,154.734212 108.318359,154.716309 L108.425781,154.689453 C108.569011,154.689453 108.658528,154.841633 108.694336,155.145996 C108.730143,155.45036 108.730143,155.674153 108.694336,155.817383 C108.551106,156.819992 108.479492,157.536131 108.479492,157.96582 C108.479492,158.10905 108.515299,158.180664 108.586914,158.180664 C108.622722,158.180664 108.676432,158.144857 108.748047,158.073242 C109.571619,157.213863 110.690585,156.399255 112.10498,155.629395 C113.519376,154.859534 114.871087,154.474609 116.160156,154.474609 Z M155.691406,154.474609 C159.128923,154.474609 161.823395,155.647286 163.774902,157.992676 C165.726409,160.338065 166.702148,162.835599 166.702148,165.485352 C166.702148,168.887061 165.439954,171.87694 162.915527,174.455078 C160.391101,177.033216 157.607112,178.322266 154.563477,178.322266 C153.2386,178.322266 151.976406,178.205893 150.776855,177.973145 C149.577305,177.740396 148.888022,177.624023 148.708984,177.624023 C148.386717,177.624023 147.983889,177.722493 147.500488,177.919434 C147.017087,178.116375 146.739584,178.214844 146.667969,178.214844 C146.524739,178.214844 146.300946,178.161133 145.996582,178.053711 C145.692219,177.946289 145.540039,177.820964 145.540039,177.677734 C145.540039,177.641927 145.593749,177.34652 145.701172,176.791504 C145.808594,176.236488 145.916015,175.42188 146.023438,174.347656 C146.13086,173.273432 146.18457,172.0739 146.18457,170.749023 L146.18457,148.512695 C146.18457,147.295241 146.07715,146.149419 145.862305,145.075195 C145.683267,144.502276 144.770191,144.21582 143.123047,144.21582 L142.639648,144.21582 C142.424804,144.21582 142.317383,144.018882 142.317383,143.625 C142.317383,143.05208 142.424804,142.765625 142.639648,142.765625 C143.713873,142.658203 144.707515,142.514975 145.620605,142.335938 C146.533696,142.1569 147.249835,141.977865 147.769043,141.798828 C148.288251,141.619791 148.726886,141.449708 149.084961,141.288574 C149.443036,141.127441 149.711588,140.993165 149.890625,140.885742 L150.105469,140.724609 L150.212891,140.724609 C150.356121,140.724609 150.499348,140.823078 150.642578,141.02002 C150.785808,141.216961 150.875325,141.404947 150.911133,141.583984 C150.517251,142.729823 150.320312,144.287425 150.320312,146.256836 L150.320312,155.65625 C150.320312,156.050132 150.374023,156.24707 150.481445,156.24707 C150.517253,156.24707 150.570963,156.229167 150.642578,156.193359 C151.143883,155.835285 151.913732,155.459312 152.952148,155.06543 C153.990565,154.671548 154.903642,154.474609 155.691406,154.474609 Z M153.972656,157.106445 C152.970047,157.106445 152.110681,157.383949 151.394531,157.938965 C150.678382,158.493981 150.320312,159.290685 150.320312,160.329102 L150.320312,172.84375 C150.320312,173.953782 150.848465,174.768389 151.904785,175.287598 C152.961106,175.806806 154.187493,176.066406 155.583984,176.066406 C157.62501,176.066406 159.218419,175.099619 160.364258,173.166016 C161.510097,171.232412 162.083008,169.048189 162.083008,166.613281 C162.083008,163.784491 161.340014,161.492847 159.854004,159.738281 C158.367994,157.983715 156.407564,157.106445 153.972656,157.106445 Z M180.828125,156.569336 C178.966137,156.569336 177.542811,157.36604 176.558105,158.959473 C175.5734,160.552905 175.081055,161.86881 175.081055,162.907227 C175.081055,163.157879 175.188475,163.283203 175.40332,163.283203 L185.876953,163.283203 C186.05599,163.283203 186.145508,163.104168 186.145508,162.746094 C186.145508,161.600255 185.662114,160.28435 184.695312,158.79834 C183.728511,157.31233 182.439461,156.569336 180.828125,156.569336 Z M181.365234,154.582031 C183.012378,154.582031 184.462559,154.895342 185.71582,155.521973 C186.969082,156.148603 187.926917,156.954259 188.589355,157.938965 C189.251794,158.92367 189.735187,159.926264 190.039551,160.946777 C190.343914,161.96729 190.496094,162.978836 190.496094,163.981445 C190.496094,164.697595 190.388673,165.13623 190.173828,165.297363 C189.958983,165.458497 189.547204,165.539062 188.938477,165.539062 L175.40332,165.539062 C175.116861,165.539062 174.973633,165.62858 174.973633,165.807617 C174.973633,168.063488 175.653965,170.14029 177.014648,172.038086 C178.375332,173.935882 180.344714,174.884766 182.922852,174.884766 C183.674808,174.884766 184.390947,174.813152 185.071289,174.669922 C185.751631,174.526692 186.333494,174.356609 186.816895,174.159668 C187.300295,173.962727 187.712075,173.765789 188.052246,173.568848 C188.392417,173.371907 188.687824,173.18392 188.938477,173.004883 L189.314453,172.736328 C189.529298,172.736328 189.636719,172.969073 189.636719,173.43457 C189.636719,173.72103 189.529298,174.043292 189.314453,174.401367 C188.598304,175.403976 187.541999,176.308101 186.145508,177.11377 C184.749016,177.919438 183.227222,178.322266 181.580078,178.322266 C178.608058,178.322266 176.056814,177.203299 173.92627,174.965332 C171.795725,172.727365 170.730469,169.997086 170.730469,166.774414 C170.730469,163.01463 171.742015,160.042654 173.765137,157.858398 C175.788259,155.674143 178.321599,154.582031 181.365234,154.582031 Z M207.576172,154.52832 C209.688813,154.52832 211.085283,155.047521 211.765625,156.085938 C211.765625,157.339199 211.568687,158.252276 211.174805,158.825195 C210.780923,159.398115 210.297529,159.68457 209.724609,159.68457 C209.080075,159.68457 208.48926,159.380211 207.952148,158.771484 C207.415036,158.162757 206.680994,157.858398 205.75,157.858398 C204.639968,157.858398 203.673181,158.377599 202.849609,159.416016 C202.026038,160.454432 201.614258,161.546544 201.614258,162.692383 L201.614258,170.749023 C201.614258,172.825857 201.757486,174.419265 202.043945,175.529297 C202.11556,175.779949 202.590002,176.021646 203.467285,176.254395 C204.344568,176.487143 204.962238,176.603516 205.320312,176.603516 C205.427735,176.603516 205.499349,176.818357 205.535156,177.248047 C205.570964,177.677737 205.55306,177.982095 205.481445,178.161133 C201.900698,177.982095 199.967124,177.892578 199.680664,177.892578 C199.465819,177.892578 197.514341,177.982095 193.826172,178.161133 C193.682942,178.017903 193.611328,177.722496 193.611328,177.274902 C193.611328,176.827309 193.682942,176.603516 193.826172,176.603516 C194.255862,176.603516 194.891435,176.487143 195.73291,176.254395 C196.574386,176.021646 197.030924,175.779949 197.102539,175.529297 C197.353191,174.49088 197.478516,173.237638 197.478516,171.769531 L197.478516,161.618164 C197.478516,160.221673 197.227867,159.254885 196.726562,158.717773 C196.368488,158.288084 195.929853,157.992677 195.410645,157.831543 C194.891436,157.670409 194.461753,157.589844 194.121582,157.589844 C193.781411,157.589844 193.611328,157.554037 193.611328,157.482422 C193.611328,156.623043 193.718749,156.175456 193.933594,156.139648 C197.729186,155.566729 200.199864,155.101239 201.345703,154.743164 C201.381511,154.743164 201.435221,154.734212 201.506836,154.716309 L201.614258,154.689453 C201.757488,154.689453 201.847005,154.841633 201.882812,155.145996 C201.91862,155.45036 201.91862,155.674153 201.882812,155.817383 L201.560547,158.50293 C202.205081,157.536128 203.091303,156.632003 204.219238,155.790527 C205.347174,154.949052 206.46614,154.52832 207.576172,154.52832 Z M222.507812,154.52832 C223.295577,154.52832 224.289219,154.626789 225.48877,154.82373 C226.68832,155.020672 227.520831,155.154948 227.986328,155.226562 C228.344403,156.873706 228.559244,158.69986 228.630859,160.705078 C228.630859,160.884115 228.398114,160.973633 227.932617,160.973633 C227.431313,160.973633 227.162761,160.848309 227.126953,160.597656 C226.947916,159.595047 226.437667,158.646163 225.596191,157.750977 C224.754716,156.85579 223.79688,156.408203 222.722656,156.408203 C220.144518,156.408203 218.855469,157.464508 218.855469,159.577148 C218.855469,160.11426 218.927083,160.588702 219.070312,161.000488 C219.213542,161.412274 219.491046,161.80615 219.902832,162.182129 C220.314618,162.558107 220.627929,162.826659 220.842773,162.987793 C221.057618,163.148927 221.53206,163.435382 222.266113,163.847168 C223.000166,164.258954 223.456705,164.518554 223.635742,164.625977 C223.778972,164.697592 224.199704,164.939288 224.897949,165.351074 C225.596195,165.76286 226.08854,166.058267 226.375,166.237305 C226.66146,166.416342 227.082191,166.720701 227.637207,167.150391 C228.192223,167.58008 228.595051,167.965005 228.845703,168.305176 C229.096355,168.645347 229.338052,169.07503 229.570801,169.594238 C229.803549,170.113447 229.919922,170.641599 229.919922,171.178711 C229.919922,173.291352 229.096362,175.054843 227.449219,176.469238 C225.802075,177.883633 223.868501,178.59082 221.648438,178.59082 C220.896481,178.59082 220.207197,178.546062 219.580566,178.456543 C218.953936,178.367024 218.210942,178.214845 217.351562,178 C216.492183,177.785155 215.829755,177.641927 215.364258,177.570312 C215.149413,176.997393 214.943523,176.10222 214.746582,174.884766 C214.549641,173.667312 214.451172,172.700524 214.451172,171.984375 C214.737632,171.76953 214.952473,171.662109 215.095703,171.662109 C215.632815,171.662109 215.919271,171.76953 215.955078,171.984375 C216.169923,173.058599 216.841303,174.105952 217.969238,175.126465 C219.097174,176.146978 220.323561,176.657227 221.648438,176.657227 C222.794277,176.657227 223.734209,176.343916 224.468262,175.717285 C225.202315,175.090654 225.569336,174.186529 225.569336,173.004883 C225.569336,172.396156 225.452963,171.832197 225.220215,171.312988 C224.987466,170.79378 224.611493,170.32829 224.092285,169.916504 C223.573077,169.504718 223.089683,169.164552 222.64209,168.895996 C222.194496,168.62744 221.558923,168.278322 220.735352,167.848633 C219.91178,167.418943 219.303062,167.078777 218.90918,166.828125 C216.116197,165.216789 214.719727,163.301118 214.719727,161.081055 C214.719727,159.147451 215.498527,157.571946 217.056152,156.354492 C218.613777,155.137038 220.430979,154.52832 222.507812,154.52832 Z M51.2290877,68.7321428 L51.2816309,66.9642855 C51.6669487,66.5714265 52.1661032,66.3749999 52.7791089,66.3749999 C53.3921146,66.3749999 53.8387263,66.5892835 54.1189575,67.0178571 C54.1890153,67.1250005 54.2240437,67.2321422 54.2240437,67.3392856 C54.2240437,67.6607158 53.8387316,68.0178552 53.0680958,68.4107142 C53.0680958,71.0535846 54.0488903,73.4107038 56.0105086,75.4821428 C57.9721269,77.5535818 60.1526431,78.5892856 62.5521228,78.5892856 C64.9516022,78.5892856 67.2722321,77.7500084 69.5140814,76.0714286 C71.7559311,74.3928486 73.5861636,72.3125123 75.0048339,69.8303571 C76.4235044,67.3482019 77.1328289,65.1071528 77.1328289,63.1071427 C77.1328289,61.1071328 76.4497756,59.3839357 75.0836487,57.9375 C73.7175215,56.4910641 72.1237305,55.4285747 70.3022278,54.75 C68.4807251,54.0714251 66.8606629,53.7321428 65.4419924,53.7321428 C64.023322,53.7321428 62.6659725,53.8035707 61.3699033,53.9464285 C59.7585739,54.1250009 58.6639373,54.2142857 58.0859604,54.2142857 C57.5079837,54.2142857 56.4308612,54.1250009 54.8545607,53.9464285 L44.3459437,73.5 C43.5052501,74.9642929 42.4543989,76.1785665 41.1933585,77.1428572 C39.9323182,78.1071476 38.4611265,78.5892856 36.7797394,78.5892856 C35.0983522,78.5892856 33.7147315,77.8125077 32.6288356,76.2589285 C31.5429398,74.7053494 31,72.9821523 31,71.0892856 C32.0858959,71.0892856 32.9265768,72.0892757 33.5220681,74.0892856 C33.7672704,74.803575 34.2313963,75.473211 34.9144599,76.0982141 C35.5975234,76.7232173 36.4819898,77.0357141 37.5678857,77.0357141 C39.179215,76.6785696 40.8080344,75.3750111 42.4543926,73.1249999 C44.1007508,70.8749888 45.5193999,68.4107275 46.7103825,65.7321428 C50.2132723,57.7678173 53.2257125,52.2500153 55.7477933,49.1785714 C57.9896428,46.142842 60.1964303,43.62501 62.3682218,41.625 C66.4315742,37.8749812 70.1095533,36 73.4022699,36 C74.5932524,36 75.5127473,36.4196387 76.1607818,37.2589286 C76.8088164,38.0982185 77.1328289,39.2678496 77.1328289,40.7678571 C77.1328289,42.2678646 76.5636178,43.7767781 75.4251786,45.2946428 C74.2867393,46.8125076 72.7542481,48.3035641 70.8276586,49.7678571 C68.9010692,51.2321501 67.850218,52.0535705 67.6750735,52.2321428 C69.2864029,52.6964309 70.7663515,53.2499967 72.1149643,53.8928571 C73.4635768,54.5357175 74.3480433,55.008927 74.76839,55.3124999 C75.1887367,55.6160729 75.6878912,56.0357116 76.2658679,56.5714286 C76.8438448,57.1071455 77.2729423,57.6607114 77.5531736,58.2321428 C78.2887804,59.7321503 78.6565785,61.4285619 78.6565785,63.3214284 C78.6565785,65.2142951 77.8334116,67.5178435 76.1870533,70.2321428 C74.5406951,72.9464421 72.4565069,75.2678475 69.9344261,77.1964285 C67.4123455,79.1250095 65.012902,80.0892856 62.7360235,80.0892856 C59.8286249,80.0892856 57.1839828,78.9285829 54.8020175,76.6071427 C52.4200525,74.2857026 51.2290877,71.6607288 51.2290877,68.7321428 Z M73.0870112,37.0178571 C71.1604219,37.0178571 68.6734074,38.2142738 65.6258933,40.6071428 L63.8919714,42.375 C63.0512778,43.2321471 62.1755685,44.1339238 61.2648171,45.0803571 C60.3540658,46.0267904 59.8461543,46.5535709 59.7410677,46.6607143 C58.5500851,48.0892928 57.2540354,50.0535589 55.8528792,52.5535714 C57.9546132,52.5535714 61.212252,52.2857169 65.6258933,51.75 C72.0361816,47.2856919 75.539019,43.4107307 76.1345104,40.125 C76.1345104,39.124995 75.8630403,38.3571455 75.3200924,37.8214286 C74.7771445,37.2857116 74.0327916,37.0178571 73.0870112,37.0178571 Z M80.1277848,74.4642855 C80.0927559,74.1428554 80.0752417,73.8392871 80.0752417,73.5535713 C80.0752417,71.2678456 80.8195946,68.9107263 82.3083228,66.4821428 C83.7970509,64.0535593 85.7148544,62.8392857 88.0617906,62.8392857 C88.5171664,62.8392857 88.8849643,62.9732129 89.1651955,63.2410713 C89.4454266,63.5089299 89.5855402,63.955354 89.5855402,64.5803571 C89.5855402,65.2053602 89.4191554,65.9374958 89.0863807,66.7767856 C88.7536063,67.6160756 88.2456948,68.4642814 87.5626314,69.3214284 C86.8795677,70.1785756 86.2928426,70.8749972 85.8024381,71.4107142 C85.3120333,71.9464312 84.620223,72.6428529 83.726986,73.5 C82.8337493,74.357147 82.2995664,74.874999 82.1244219,75.0535713 C82.0893931,75.3392871 82.0718789,75.4999998 82.0718789,75.5357141 C82.0718789,76.5000047 82.5272478,77.2499973 83.4379991,77.7857143 C84.3487505,78.3214311 85.2945166,78.5892856 86.2753257,78.5892856 C88.622262,78.5892856 90.4875228,78.1607185 91.8711644,77.3035713 C93.2548059,76.4464242 94.8573539,75.00001 96.6788566,72.9642855 C96.9590879,72.607141 97.1254725,72.3214296 97.1780159,72.1071427 C97.2305592,71.892856 97.4144583,71.6607154 97.7297183,71.4107142 C98.0800073,71.553572 98.2551492,71.8928544 98.2551492,72.4285714 C97.9048601,73.5357197 97.2042927,74.7232079 96.1534258,75.9910713 C95.1025589,77.2589349 93.8590515,78.3392812 92.4228666,79.2321428 C90.4262196,80.4107201 88.7361006,81 87.352459,81 C85.9688175,81 84.6289821,80.5178619 83.3329129,79.5535713 C82.0368438,78.5892807 80.9684782,76.8928692 80.1277848,74.4642855 Z M88.1668768,64.8214284 C86.6606341,64.8214284 85.2594991,65.6428489 83.96343,67.2857143 C82.6673608,68.9285796 82.0193359,70.4999924 82.0193359,72 C82.0193359,72.5000025 82.0543641,72.8571417 82.1244219,73.0714286 C83.4204913,72.3571392 84.7515694,71.1339372 86.1176964,69.4017857 C87.4838235,67.6696342 88.1668768,66.1428637 88.1668768,64.8214284 Z M102.300967,78.2142857 C103.491949,78.2142857 104.717942,78.0357159 105.978983,77.6785712 C107.240023,77.3214268 108.8163,76.8214317 110.70786,76.1785712 C112.599421,75.535711 113.860442,75.2142857 114.490962,75.2142857 C115.121483,75.2142857 115.436738,75.3928553 115.436738,75.7499998 C115.436738,75.9285722 115.40171,76.1249989 115.331652,76.3392856 C110.007259,78.8035837 105.856397,80.0357141 102.878941,80.0357141 C101.197553,80.0357141 99.8927467,79.6428609 98.9644808,78.8571429 C98.036215,78.0714246 97.5720892,77.1517908 97.5720892,76.0982141 C97.5720892,75.0446375 97.7647452,73.9821481 98.150063,72.9107142 C99.0257854,70.5178451 100.444435,68.6785777 102.406053,67.392857 C103.562007,66.6071389 104.630372,66.2142857 105.611181,66.2142857 C107.327597,66.2142857 108.76376,67.2321326 109.919714,69.2678571 L109.919714,69.4285715 L108.973939,70.392857 C108.238332,68.7857061 107.222509,67.9821428 105.92644,67.9821428 C105.471064,67.9821428 104.998181,68.0892847 104.507776,68.3035714 C102.79136,68.9107173 101.390225,70.2499896 100.30433,72.3214284 C99.5687226,73.7142926 99.2009247,75.1071358 99.2009247,76.5 C99.5512137,77.6428628 100.584551,78.2142857 102.300967,78.2142857 Z M119.850357,78.2142857 C121.04134,78.2142857 122.267333,78.0357159 123.528373,77.6785712 C124.789413,77.3214268 126.36569,76.8214317 128.257251,76.1785712 C130.148811,75.535711 131.409833,75.2142857 132.040353,75.2142857 C132.670873,75.2142857 132.986128,75.3928553 132.986128,75.7499998 C132.986128,75.9285722 132.9511,76.1249989 132.881042,76.3392856 C127.55665,78.8035837 123.405788,80.0357141 120.428331,80.0357141 C118.746944,80.0357141 117.442137,79.6428609 116.513871,78.8571429 C115.585606,78.0714246 115.121479,77.1517908 115.121479,76.0982141 C115.121479,75.0446375 115.314136,73.9821481 115.699453,72.9107142 C116.575176,70.5178451 117.993825,68.6785777 119.955443,67.392857 C121.111397,66.6071389 122.179762,66.2142857 123.160572,66.2142857 C124.876988,66.2142857 126.313151,67.2321326 127.469105,69.2678571 L127.469105,69.4285715 L126.523329,70.392857 C125.787722,68.7857061 124.771899,67.9821428 123.47583,67.9821428 C123.020454,67.9821428 122.547571,68.0892847 122.057167,68.3035714 C120.340751,68.9107173 118.939616,70.2499896 117.85372,72.3214284 C117.118113,73.7142926 116.750315,75.1071358 116.750315,76.5 C117.100604,77.6428628 118.133941,78.2142857 119.850357,78.2142857 Z M145.543926,66.4821428 C144.528088,69.1250132 144.020177,71.5892742 144.020177,73.8749999 C144.020177,77.6607331 146.034308,79.5535713 150.062631,79.5535713 C151.078469,79.4107135 151.840336,79.19643 152.348255,78.9107142 C152.856175,78.6249984 153.407871,78.133932 154.003363,77.4375 C154.598854,76.7410678 155.176822,76.1607166 155.737284,75.6964285 L156,75.6964285 C155.824855,77.6964384 155.150559,79.0446393 153.977091,79.7410713 C152.803623,80.4375035 151.201075,80.7857143 149.169399,80.7857143 C144.790786,80.7857143 142.426371,78.910733 142.076082,75.1607142 C141.900938,76.0892903 141.104042,77.1696366 139.685372,78.4017857 C138.266701,79.6339347 136.996923,80.2499998 135.875998,80.2499998 L135.613283,80.2499998 C133.441491,79.6428541 132.355611,78.3214386 132.355611,76.2857143 C132.355611,73.6428439 133.704204,71.071441 136.401429,68.5714286 C138.503163,66.607133 140.552323,65.6249999 142.54897,65.6249999 C143.669895,65.6249999 144.668204,65.9107114 145.543926,66.4821428 Z M133.984447,76.0178571 C133.984447,76.5892884 134.010718,77.0446411 134.063262,77.3839284 C134.115805,77.7232159 134.290947,78.0357128 134.588693,78.3214284 C134.886438,78.6071442 135.315536,78.7499998 135.875998,78.7499998 C137.41727,78.6785709 138.967275,77.4196549 140.526061,74.9732142 C142.084847,72.5267734 142.916771,70.4285801 143.021858,68.6785713 C142.461396,67.9642821 141.690771,67.6071427 140.709962,67.6071427 C139.448922,67.6071427 138.135358,68.4285632 136.769231,70.0714286 C135.403104,71.7142938 134.474852,73.6964168 133.984447,76.0178571 Z" id="title"></path>
        </g>
    </g>
</svg>